<svg width="30" height="30" viewBox="0 0 30 30" fill="none" xmlns="http://www.w3.org/2000/svg">
<g clip-path="url(#clip0_3196_14324)">
<path d="M21.6667 11.6673C21.6667 7.06315 16.8177 3.33398 10.8333 3.33398C4.84896 3.33398 0 7.06315 0 11.6673C0 13.4538 0.734375 15.0996 1.97917 16.459C1.28125 18.0319 0.130208 19.2819 0.114583 19.2975C0 19.4173 -0.03125 19.5944 0.0364583 19.7506C0.104167 19.9069 0.25 20.0006 0.416667 20.0006C2.32292 20.0006 3.90104 19.36 5.03646 18.6986C6.71354 19.5163 8.69792 20.0006 10.8333 20.0006C16.8177 20.0006 21.6667 16.2715 21.6667 11.6673ZM28.0208 23.1256C29.2656 21.7715 30 20.1204 30 18.334C30 14.8496 27.2135 11.8652 23.2656 10.6204C23.3125 10.9642 23.3333 11.3131 23.3333 11.6673C23.3333 17.1829 17.724 21.6673 10.8333 21.6673C10.2708 21.6673 9.72396 21.6256 9.18229 21.5684C10.8229 24.5631 14.6771 26.6673 19.1667 26.6673C21.3021 26.6673 23.2865 26.1881 24.9635 25.3652C26.099 26.0267 27.6771 26.6673 29.5833 26.6673C29.75 26.6673 29.901 26.5684 29.9635 26.4173C30.0312 26.2663 30 26.0892 29.8854 25.9642C29.8698 25.9486 28.7187 24.7038 28.0208 23.1256Z" fill="black"/>
</g>
<defs>
<clipPath id="clip0_3196_14324">
<rect width="30" height="30" fill="white"/>
</clipPath>
</defs>
</svg>
