<svg width="501" height="500" viewBox="0 0 501 500" fill="none" xmlns="http://www.w3.org/2000/svg">
<path d="M501 0H0V500H501V0Z" fill="#C4C4C4"/>
<path d="M276.906 274C280.207 274 283 271.375 283 268V232C283 228.75 280.207 226 276.906 226H224.094C220.666 226 218 228.75 218 232V268C218 271.375 220.666 274 224.094 274H276.906ZM232.219 233C236.027 233 239.328 236.25 239.328 240C239.328 243.875 236.027 247 232.219 247C228.283 247 225.109 243.875 225.109 240C225.109 236.25 228.283 233 232.219 233ZM226.125 266V260L235.139 251.125C235.773 250.5 236.662 250.5 237.297 251.125L244.406 258L261.55 241.125C262.18 240.5 263.073 240.5 263.703 241.125L274.875 252V266H226.125Z" fill="#1F2E35"/>
</svg>
