<svg width="513" height="358" viewBox="0 0 513 358" fill="none" xmlns="http://www.w3.org/2000/svg">
<path d="M75.1258 318.331C175.299 370.591 337.701 370.591 437.874 318.331C538.048 266.071 538.036 181.346 437.874 129.086C337.713 76.8256 175.299 76.8256 75.1258 129.086C-25.0479 181.346 -25.0359 266.071 75.1258 318.331Z" fill="#F5F5F5"/>
<path d="M191.824 64.2871V67.9311C191.824 67.9311 193.523 66.6338 193.574 65.7083C193.625 64.7827 191.824 64.2871 191.824 64.2871Z" fill="black"/>
<path d="M195.121 63.4043C195.301 63.9107 195.357 64.4434 195.286 64.9693C195.215 65.4951 195.018 66.0027 194.708 66.4603C194.398 66.9179 193.981 67.3157 193.483 67.6288C192.986 67.9419 192.418 68.1636 191.816 68.2799C187.16 69.5408 184.229 68.2799 183.524 69.4023C182.819 70.5246 205.656 81.7918 205.656 81.7918L201.315 65.5907L195.121 63.4043Z" fill="#80C4D3"/>
<path d="M197.09 232.201L295.305 183.576V19.9541C295.305 17.6219 293.81 16.4631 291.966 17.3814L288.636 19.0358L197.09 64.3596L197.175 65.0447L197.09 232.201Z" fill="#80C4D3"/>
<path opacity="0.2" d="M197.09 232.201L295.305 183.576V19.9541C295.305 17.6219 293.81 16.4631 291.966 17.3814L288.636 19.0358L197.09 64.3596L197.175 65.0447L197.09 232.201Z" fill="white"/>
<path d="M208.399 82.0548L213.208 77.4197L197.252 69.5195C193.539 71.9173 190.693 73.2 187.371 72.0047L208.399 82.0548Z" fill="#455A64"/>
<path d="M210.165 76.3325C210.122 76.3363 210.079 76.3309 210.039 76.3169C209.999 76.303 209.963 76.2808 209.936 76.2523C209.77 76.0372 209.692 75.7807 209.715 75.5235V75.2976L197.82 69.4308C198.441 68.8161 198.826 68.053 198.925 67.2444L289.383 22.438C290.201 22.0883 291.103 21.9062 292.017 21.9062C292.931 21.9062 293.832 22.0883 294.651 22.438L309.621 29.8426L218.457 74.5979C217.749 74.4776 217.03 74.4166 216.308 74.4157C214.608 74.3706 212.94 74.8201 211.576 75.6911C211.194 76.0253 210.701 76.2494 210.165 76.3325V76.3325Z" fill="#FAFAFA"/>
<path d="M292.02 22.2731C292.864 22.2584 293.698 22.4237 294.449 22.7541L308.765 29.8453L218.384 74.2217C217.701 74.1083 217.006 74.0522 216.311 74.054C214.513 74 212.749 74.4787 211.315 75.4096C211.005 75.6649 210.63 75.8545 210.219 75.9635C210.16 75.821 210.134 75.67 210.143 75.5189V75.0671L209.692 74.8484L198.452 69.2877C198.922 68.7381 199.237 68.1017 199.369 67.4293L289.573 22.7541C290.32 22.4223 291.153 22.2569 291.994 22.2731H292.02ZM291.994 21.5443C291.003 21.5253 290.022 21.7261 289.148 22.1274L198.494 67.0285C198.494 67.0285 198.945 67.5823 197.254 69.5209L209.293 75.4752C209.293 75.4752 209.216 76.6996 210.143 76.6996C210.786 76.62 211.382 76.3644 211.842 75.9708C213.127 75.1486 214.7 74.7269 216.302 74.7756C217.048 74.7726 217.792 74.841 218.52 74.9796L310.473 29.8453L294.866 22.1274C293.992 21.7252 293.011 21.5243 292.02 21.5443H291.994Z" fill="#E0E0E0"/>
<path d="M210.167 81.0861C211.11 80.627 211.509 80.0876 211.067 79.869L210.294 79.49C209.445 79.0673 210.235 77.9741 212.087 77.0559C213.939 76.1376 216.131 75.7295 216.981 76.1522L217.754 76.5311C218.196 76.7498 219.81 76.2979 221.373 75.5254L220.812 243.673L218.552 244.795C218.104 244.883 217.634 244.847 217.21 244.693L216.445 244.307C215.596 243.884 213.404 244.307 211.552 245.196C209.699 246.085 208.909 247.208 209.759 247.63L210.532 248.009C210.974 248.228 210.532 248.738 209.682 249.234L210.167 81.0861Z" fill="#80C4D3"/>
<path opacity="0.35" d="M210.167 81.0861C211.11 80.627 211.509 80.0876 211.067 79.869L210.294 79.49C209.445 79.0673 210.235 77.9741 212.087 77.0559C213.939 76.1376 216.131 75.7295 216.981 76.1522L217.754 76.5311C218.196 76.7498 219.81 76.2979 221.373 75.5254L220.812 243.673L218.552 244.795C218.104 244.883 217.634 244.847 217.21 244.693L216.445 244.307C215.596 243.884 213.404 244.307 211.552 245.196C209.699 246.085 208.909 247.208 209.759 247.63L210.532 248.009C210.974 248.228 210.532 248.738 209.682 249.234L210.167 81.0861Z" fill="white"/>
<path d="M218.551 244.571V244.797L220.828 243.667L318.72 195.173V31.5439C318.72 29.2118 317.225 28.053 315.381 28.9713L312.008 30.6256L218.551 74.9874V244.571Z" fill="#80C4D3"/>
<path opacity="0.5" d="M218.551 244.571V244.797L220.828 243.667L318.72 195.173V31.5439C318.72 29.2118 317.225 28.053 315.381 28.9713L312.008 30.6256L218.551 74.9874V244.571Z" fill="white"/>
<path d="M211.239 248.402V80.1016L205.164 82.2005V250.035C206.304 250.241 207.49 250.142 208.563 249.751L211.239 248.402Z" fill="#80C4D3"/>
<path opacity="0.5" d="M211.239 248.402V80.1016L205.164 82.2005V250.035C206.304 250.241 207.49 250.142 208.563 249.751L211.239 248.402Z" fill="white"/>
<path d="M181.076 237.536C181.067 237.631 181.067 237.726 181.076 237.82C181.077 237.884 181.095 237.946 181.127 238.003C181.169 238.141 181.235 238.274 181.322 238.396C181.345 238.467 181.382 238.534 181.432 238.593C181.576 238.821 181.75 239.034 181.951 239.227C182.163 239.449 182.39 239.661 182.63 239.861C182.902 240.072 183.183 240.276 183.48 240.495C183.646 240.625 183.825 240.743 184.015 240.845L184.466 241.115C184.805 241.319 185.162 241.508 185.553 241.705L198.008 247.871C200.2 248.977 202.616 249.719 205.128 250.057V82.2008L181.059 69.6582V237.492L181.076 237.536Z" fill="#80C4D3"/>
<g opacity="0.8">
<path opacity="0.8" d="M181.076 237.536C181.067 237.631 181.067 237.726 181.076 237.82C181.077 237.884 181.095 237.946 181.127 238.003C181.169 238.141 181.235 238.274 181.322 238.396C181.345 238.467 181.382 238.534 181.432 238.593C181.576 238.821 181.75 239.034 181.951 239.227C182.163 239.449 182.39 239.661 182.63 239.861C182.902 240.072 183.183 240.276 183.48 240.495C183.646 240.625 183.825 240.743 184.015 240.845L184.466 241.115C184.805 241.319 185.162 241.508 185.553 241.705L198.008 247.871C200.2 248.977 202.616 249.719 205.128 250.057V82.2008L181.059 69.6582V237.492L181.076 237.536Z" fill="white"/>
</g>
<path d="M205.171 94.2624V111.812C197.252 110.471 184.958 104.342 181.059 99.8741V82.332C186.513 87.6304 197.252 92.6445 205.171 94.2624Z" fill="#FAFAFA"/>
<path d="M205.171 211.854V229.404C197.252 228.063 184.958 221.933 181.059 217.466V199.924C186.513 205.222 197.252 210.236 205.171 211.854Z" fill="#FAFAFA"/>
<path d="M199.785 80.9018L201.433 78.4822C204.475 79.9908 205.783 79.59 206.718 79.5025C206.591 78.675 206.795 77.835 207.296 77.1194C208.083 76.0701 209.171 75.2119 210.456 74.6269C211.924 73.889 213.551 73.4154 215.24 73.2349H215.596C216.606 73.1561 217.621 73.3201 218.528 73.7086L305.375 30.7097L308.323 29.2521L312.087 27.3864C312.382 27.2093 312.727 27.1042 313.086 27.0824C313.446 27.0606 313.805 27.1228 314.126 27.2625L317.465 28.9095C317.137 28.7647 316.77 28.6984 316.402 28.7177C316.034 28.7369 315.68 28.841 315.375 29.0189H315.324L305.366 33.9601L221.382 75.5524C219.819 76.325 218.196 76.7914 217.754 76.5728L216.981 76.1865C216.428 75.9932 215.817 75.9599 215.24 76.0918C214.132 76.2559 213.067 76.5891 212.096 77.0756C210.235 77.9939 209.445 79.0871 210.303 79.5098L211.068 79.8888C211.51 80.1074 211.068 80.6176 210.218 81.1059L208.519 81.9294C206.659 82.8113 203.719 82.855 199.785 80.9018Z" fill="#80C4D3"/>
<path opacity="0.7" d="M199.785 80.9018L201.433 78.4822C204.475 79.9908 205.783 79.59 206.718 79.5025C206.591 78.675 206.795 77.835 207.296 77.1194C208.083 76.0701 209.171 75.2119 210.456 74.6269C211.924 73.889 213.551 73.4154 215.24 73.2349H215.596C216.606 73.1561 217.621 73.3201 218.528 73.7086L305.375 30.7097L308.323 29.2521L312.087 27.3864C312.382 27.2093 312.727 27.1042 313.086 27.0824C313.446 27.0606 313.805 27.1228 314.126 27.2625L317.465 28.9095C317.137 28.7647 316.77 28.6984 316.402 28.7177C316.034 28.7369 315.68 28.841 315.375 29.0189H315.324L305.366 33.9601L221.382 75.5524C219.819 76.325 218.196 76.7914 217.754 76.5728L216.981 76.1865C216.428 75.9932 215.817 75.9599 215.24 76.0918C214.132 76.2559 213.067 76.5891 212.096 77.0756C210.235 77.9939 209.445 79.0871 210.303 79.5098L211.068 79.8888C211.51 80.1074 211.068 80.6176 210.218 81.1059L208.519 81.9294C206.659 82.8113 203.719 82.855 199.785 80.9018Z" fill="white"/>
<path d="M201.433 78.4838L187.227 71.4145C186.93 71.2687 186.641 71.1084 186.377 70.9553L185.706 70.5399C185.683 70.5295 185.662 70.5145 185.647 70.4962C188.06 71.3999 191.331 70.5399 193.489 69.4613C194.743 68.8836 195.805 68.0407 196.573 67.0126C197.125 66.2148 197.316 65.2704 197.108 64.3597L197.397 64.214C197.592 64.112 197.788 64.0318 197.983 63.9298L281.959 22.3665L286.768 19.9761C287.218 19.7575 287.685 19.517 288.161 19.2983L292.231 17.265C292.51 17.1355 292.822 17.0677 293.14 17.0677C293.457 17.0677 293.769 17.1355 294.049 17.265L293.131 16.8131L290.718 15.6106C290.456 15.4943 290.164 15.4336 289.869 15.4336C289.573 15.4336 289.282 15.4943 289.019 15.6106C289.019 15.6106 289.019 15.6106 288.977 15.6106C288.492 15.8438 287.999 16.1062 287.473 16.3394L286.538 16.8058C285.986 17.0901 285.425 17.3524 284.915 17.6002C284.55 17.7751 284.219 17.9355 283.921 18.0958C283.624 18.2561 283.412 18.3363 283.208 18.4456L281.967 19.0505L215.264 52.1014L193.956 62.6616C192.435 63.3904 191.543 64.1921 191.9 64.4472L192.027 64.5274L192.775 64.8991C193.701 65.3582 192.953 66.466 191.076 67.377C189.198 68.2879 187.771 68.3098 186.828 67.8944L185.919 67.4426C185.726 67.3295 185.505 67.2557 185.274 67.2267C185.043 67.1976 184.807 67.2141 184.585 67.2749C184.449 67.3332 184.279 67.428 184.1 67.5154C183.922 67.6029 183.446 67.8434 183.047 68.0402C182.648 68.2369 182.197 68.4483 181.739 68.6815C181.466 68.7958 181.248 68.9873 181.121 69.2237C180.994 69.4601 180.966 69.7268 181.042 69.9788C181.023 70.0384 181.023 70.1013 181.042 70.161C181.082 70.3003 181.148 70.4332 181.237 70.5545V70.5545C181.254 70.6223 181.285 70.6867 181.331 70.744C181.474 70.9719 181.648 71.1847 181.849 71.378C182.062 71.6 182.289 71.8117 182.529 72.0121C182.801 72.2234 183.081 72.4275 183.378 72.6462C183.547 72.7765 183.729 72.8936 183.922 72.996L184.364 73.2656C184.704 73.4697 185.06 73.6665 185.451 73.8559L199.648 80.8961L201.433 78.4838Z" fill="#80C4D3"/>
<path opacity="0.7" d="M201.433 78.4838L187.227 71.4145C186.93 71.2687 186.641 71.1084 186.377 70.9553L185.706 70.5399C185.683 70.5295 185.662 70.5145 185.647 70.4962C188.06 71.3999 191.331 70.5399 193.489 69.4613C194.743 68.8836 195.805 68.0407 196.573 67.0126C197.125 66.2148 197.316 65.2704 197.108 64.3597L197.397 64.214C197.592 64.112 197.788 64.0318 197.983 63.9298L281.959 22.3665L286.768 19.9761C287.218 19.7575 287.685 19.517 288.161 19.2983L292.231 17.265C292.51 17.1355 292.822 17.0677 293.14 17.0677C293.457 17.0677 293.769 17.1355 294.049 17.265L293.131 16.8131L290.718 15.6106C290.456 15.4943 290.164 15.4336 289.869 15.4336C289.573 15.4336 289.282 15.4943 289.019 15.6106C289.019 15.6106 289.019 15.6106 288.977 15.6106C288.492 15.8438 287.999 16.1062 287.473 16.3394L286.538 16.8058C285.986 17.0901 285.425 17.3524 284.915 17.6002C284.55 17.7751 284.219 17.9355 283.921 18.0958C283.624 18.2561 283.412 18.3363 283.208 18.4456L281.967 19.0505L215.264 52.1014L193.956 62.6616C192.435 63.3904 191.543 64.1921 191.9 64.4472L192.027 64.5274L192.775 64.8991C193.701 65.3582 192.953 66.466 191.076 67.377C189.198 68.2879 187.771 68.3098 186.828 67.8944L185.919 67.4426C185.726 67.3295 185.505 67.2557 185.274 67.2267C185.043 67.1976 184.807 67.2141 184.585 67.2749C184.449 67.3332 184.279 67.428 184.1 67.5154C183.922 67.6029 183.446 67.8434 183.047 68.0402C182.648 68.2369 182.197 68.4483 181.739 68.6815C181.466 68.7958 181.248 68.9873 181.121 69.2237C180.994 69.4601 180.966 69.7268 181.042 69.9788C181.023 70.0384 181.023 70.1013 181.042 70.161C181.082 70.3003 181.148 70.4332 181.237 70.5545V70.5545C181.254 70.6223 181.285 70.6867 181.331 70.744C181.474 70.9719 181.648 71.1847 181.849 71.378C182.062 71.6 182.289 71.8117 182.529 72.0121C182.801 72.2234 183.081 72.4275 183.378 72.6462C183.547 72.7765 183.729 72.8936 183.922 72.996L184.364 73.2656C184.704 73.4697 185.06 73.6665 185.451 73.8559L199.648 80.8961L201.433 78.4838Z" fill="white"/>
<path d="M223.973 79.752V83.3959C223.973 83.3959 225.621 82.106 225.672 81.2095C225.723 80.3131 223.973 79.752 223.973 79.752Z" fill="black"/>
<path d="M227.261 78.8633C227.446 79.3705 227.507 79.9052 227.439 80.4336C227.371 80.962 227.176 81.4725 226.866 81.9328C226.556 82.3932 226.138 82.7933 225.639 83.108C225.139 83.4226 224.569 83.6449 223.964 83.7608C219.3 85.0216 216.369 83.7608 215.672 84.8831C214.975 86.0055 237.762 97.2726 237.762 97.2726L233.429 81.0715L227.261 78.8633Z" fill="#80C4D3"/>
<path opacity="0.3" d="M227.261 78.8633C227.446 79.3705 227.507 79.9052 227.439 80.4336C227.371 80.962 227.176 81.4725 226.866 81.9328C226.556 82.3932 226.138 82.7933 225.639 83.108C225.139 83.4226 224.569 83.6449 223.964 83.7608C219.3 85.0216 216.369 83.7608 215.672 84.8831C214.975 86.0055 237.762 97.2726 237.762 97.2726L233.429 81.0715L227.261 78.8633Z" fill="black"/>
<path d="M229.234 247.666L327.449 199.034V35.4192C327.449 33.0798 325.963 31.9283 324.119 32.8393L320.789 34.5009L229.234 79.8174L229.319 80.5098L229.234 247.666Z" fill="#80C4D3"/>
<path d="M240.543 97.5138L245.36 92.8787L229.404 84.9785C225.692 87.3835 222.845 88.6662 219.523 87.4637L240.543 97.5138Z" fill="#455A64"/>
<path d="M242.342 91.7934C242.299 91.797 242.255 91.7923 242.214 91.7797C242.173 91.7671 242.135 91.7469 242.104 91.7205C241.949 91.5015 241.872 91.248 241.883 90.9917V90.7731L230.031 84.9063C230.651 84.2911 231.036 83.5282 231.136 82.7199L321.534 37.899C322.353 37.5492 323.254 37.3672 324.168 37.3672C325.082 37.3672 325.984 37.5492 326.802 37.899L341.747 45.3035L250.583 90.0661C249.879 89.9384 249.162 89.8748 248.442 89.8767C246.742 89.8304 245.074 90.28 243.71 91.1521C242.92 91.7132 242.495 91.7934 242.342 91.7934Z" fill="#FAFAFA"/>
<path d="M324.168 37.7296C325.011 37.7121 325.844 37.8802 326.589 38.2179L340.897 45.3018L250.532 89.6782C249.849 89.5652 249.155 89.5091 248.459 89.5105C246.658 89.4593 244.892 89.9404 243.455 90.8734C243.143 91.127 242.769 91.3164 242.359 91.4273C242.305 91.2812 242.279 91.1286 242.282 90.9754V90.5309L241.824 90.3049L230.592 84.7442C231.06 84.1934 231.374 83.5575 231.509 82.8858L321.738 38.2179C322.487 37.8811 323.323 37.7131 324.168 37.7296V37.7296ZM324.168 37.0008C323.174 36.9854 322.192 37.186 321.313 37.5839L230.643 82.4922C230.643 82.4922 231.085 83.0388 229.402 84.9774L241.433 90.939C241.433 90.939 241.356 92.1561 242.282 92.1561C242.927 92.0791 243.523 91.823 243.982 91.4273C245.27 90.6056 246.846 90.1841 248.451 90.2321C249.194 90.2286 249.935 90.2996 250.66 90.4434L342.596 45.3091L326.989 37.5839C326.113 37.186 325.134 36.9854 324.143 37.0008H324.168Z" fill="#E0E0E0"/>
<path d="M242.344 96.5431C243.279 96.084 243.678 95.5447 243.236 95.326L242.472 94.9471C241.622 94.5244 242.404 93.4312 244.264 92.5129C246.125 91.5946 248.292 91.1865 249.141 91.6019L249.914 91.9882C250.356 92.2068 251.97 91.7549 253.534 90.9824L252.973 259.123L250.679 260.252C250.232 260.342 249.764 260.304 249.345 260.143L248.572 259.764C247.722 259.341 245.53 259.764 243.687 260.646C241.843 261.528 241.036 262.657 241.894 263.08L242.667 263.466C243.109 263.685 242.667 264.195 241.767 264.684L242.344 96.5431Z" fill="#80C4D3"/>
<path opacity="0.25" d="M242.344 96.5431C243.279 96.084 243.678 95.5447 243.236 95.326L242.472 94.9471C241.622 94.5244 242.404 93.4312 244.264 92.5129C246.125 91.5946 248.292 91.1865 249.141 91.6019L249.914 91.9882C250.356 92.2068 251.97 91.7549 253.534 90.9824L252.973 259.123L250.679 260.252C250.232 260.342 249.764 260.304 249.345 260.143L248.572 259.764C247.722 259.341 245.53 259.764 243.687 260.646C241.843 261.528 241.036 262.657 241.894 263.08L242.667 263.466C243.109 263.685 242.667 264.195 241.767 264.684L242.344 96.5431Z" fill="white"/>
<path d="M250.668 260.029V260.262L252.953 259.132L350.871 210.638V47.0091C350.871 44.6696 349.384 43.5181 347.541 44.4291L344.21 46.0908L250.668 90.4526V260.029Z" fill="#80C4D3"/>
<path opacity="0.4" d="M250.668 260.029V260.262L252.953 259.132L350.871 210.638V47.0091C350.871 44.6696 349.384 43.5181 347.541 44.4291L344.21 46.0908L250.668 90.4526V260.029Z" fill="white"/>
<path d="M243.387 263.869V95.5605L237.312 97.6668V265.501C238.44 265.697 239.61 265.595 240.668 265.21L243.387 263.869Z" fill="#80C4D3"/>
<path opacity="0.4" d="M243.387 263.869V95.5605L237.312 97.6668V265.501C238.44 265.697 239.61 265.595 240.668 265.21L243.387 263.869Z" fill="white"/>
<path d="M213.219 253.003C213.211 253.095 213.211 253.187 213.219 253.279C213.22 253.343 213.237 253.405 213.27 253.462C213.308 253.601 213.371 253.734 213.457 253.855C213.485 253.924 213.522 253.99 213.568 254.052C213.717 254.278 213.894 254.491 214.095 254.686C214.303 254.911 214.53 255.123 214.774 255.32C215.046 255.531 215.326 255.735 215.624 255.954C215.794 256.083 215.976 256.2 216.168 256.304L216.618 256.574C216.949 256.778 217.315 256.974 217.697 257.164L230.161 263.33C232.35 264.435 234.762 265.177 237.272 265.516V97.667L213.211 85.1172V253.003H213.219Z" fill="#80C4D3"/>
<g opacity="0.7">
<path opacity="0.7" d="M213.219 253.003C213.211 253.095 213.211 253.187 213.219 253.279C213.22 253.343 213.237 253.405 213.27 253.462C213.308 253.601 213.371 253.734 213.457 253.855C213.485 253.924 213.522 253.99 213.568 254.052C213.717 254.278 213.894 254.491 214.095 254.686C214.303 254.911 214.53 255.123 214.774 255.32C215.046 255.531 215.326 255.735 215.624 255.954C215.794 256.083 215.976 256.2 216.168 256.304L216.618 256.574C216.949 256.778 217.315 256.974 217.697 257.164L230.161 263.33C232.35 264.435 234.762 265.177 237.272 265.516V97.667L213.211 85.1172V253.003H213.219Z" fill="white"/>
</g>
<path d="M237.314 109.727V127.269C229.405 125.935 217.102 119.806 213.211 115.338V97.7891C218.665 103.087 229.405 108.102 237.314 109.727Z" fill="#FAFAFA"/>
<path d="M237.314 227.311V244.861C229.405 243.52 217.102 237.398 213.211 232.93V215.381C218.665 220.679 229.405 225.701 237.314 227.311Z" fill="#FAFAFA"/>
<path d="M231.934 96.3602L233.573 93.9188C236.623 95.4274 237.923 95.0338 238.858 94.9391C238.736 94.1117 238.939 93.273 239.436 92.5559C240.227 91.5092 241.314 90.6517 242.596 90.0634C244.069 89.3294 245.698 88.8561 247.388 88.6714C247.507 88.6714 247.634 88.6714 247.745 88.6714C248.754 88.5891 249.771 88.7534 250.676 89.1452L337.515 46.1462L340.472 44.6886L344.235 42.7719C344.529 42.5922 344.874 42.4849 345.233 42.4618C345.593 42.4386 345.953 42.5005 346.274 42.6407L349.605 44.2878C349.279 44.1429 348.913 44.0765 348.546 44.0957C348.18 44.115 347.826 44.2191 347.523 44.3971H347.472L337.498 49.3894L253.505 90.9817C251.942 91.7542 250.319 92.2207 249.877 92.002L249.138 91.6012C248.587 91.4012 247.974 91.3652 247.397 91.4992C246.286 91.6631 245.218 91.9963 244.244 92.4831C242.392 93.4086 241.602 94.4945 242.46 94.9245L243.225 95.3035C243.667 95.5221 243.267 96.0323 242.333 96.5206L240.634 97.3368C238.815 98.277 235.859 98.3061 231.934 96.3602Z" fill="#80C4D3"/>
<path opacity="0.6" d="M231.934 96.3602L233.573 93.9188C236.623 95.4274 237.923 95.0338 238.858 94.9391C238.736 94.1117 238.939 93.273 239.436 92.5559C240.227 91.5092 241.314 90.6517 242.596 90.0634C244.069 89.3294 245.698 88.8561 247.388 88.6714C247.507 88.6714 247.634 88.6714 247.745 88.6714C248.754 88.5891 249.771 88.7534 250.676 89.1452L337.515 46.1462L340.472 44.6886L344.235 42.7719C344.529 42.5922 344.874 42.4849 345.233 42.4618C345.593 42.4386 345.953 42.5005 346.274 42.6407L349.605 44.2878C349.279 44.1429 348.913 44.0765 348.546 44.0957C348.18 44.115 347.826 44.2191 347.523 44.3971H347.472L337.498 49.3894L253.505 90.9817C251.942 91.7542 250.319 92.2207 249.877 92.002L249.138 91.6012C248.587 91.4012 247.974 91.3652 247.397 91.4992C246.286 91.6631 245.218 91.9963 244.244 92.4831C242.392 93.4086 241.602 94.4945 242.46 94.9245L243.225 95.3035C243.667 95.5221 243.267 96.0323 242.333 96.5206L240.634 97.3368C238.815 98.277 235.859 98.3061 231.934 96.3602Z" fill="white"/>
<path d="M233.574 93.92L219.403 86.8799L218.553 86.4135L217.882 86.0053C217.856 85.9942 217.836 85.9763 217.823 85.9543C220.227 86.858 223.507 85.998 225.656 84.9194C226.916 84.3463 227.982 83.5026 228.749 82.4707C229.298 81.6719 229.486 80.7276 229.275 79.8179L229.564 79.6721L230.151 79.3879L314.143 37.8028L318.96 35.4124C319.411 35.201 319.878 34.9532 320.354 34.7346L324.415 32.7231C324.694 32.5936 325.007 32.5258 325.324 32.5258C325.641 32.5258 325.954 32.5936 326.233 32.7231L325.324 32.2712L322.86 31.1125C322.598 30.995 322.306 30.9336 322.011 30.9336C321.715 30.9336 321.423 30.995 321.161 31.1125C321.161 31.1125 321.161 31.1125 321.118 31.1125C320.634 31.353 320.141 31.608 319.615 31.8413L318.672 32.3004C318.119 32.5846 317.567 32.847 317.057 33.0948C316.692 33.277 316.352 33.4373 316.055 33.5977C315.757 33.758 315.553 33.8382 315.35 33.9475L314.101 34.5524L247.44 67.5522L226.14 78.0979C224.611 78.8267 223.727 79.6211 224.084 79.8762C224.122 79.908 224.165 79.935 224.212 79.9563L224.959 80.328C225.885 80.7872 225.138 81.8949 223.26 82.8059C221.383 83.7169 219.955 83.7461 219.012 83.3234L218.095 82.8715C217.903 82.7581 217.684 82.684 217.455 82.6549C217.225 82.6259 216.99 82.6426 216.769 82.7039L216.276 82.9517L215.223 83.4691L213.923 84.1105C213.651 84.2257 213.433 84.417 213.305 84.6528C213.176 84.8887 213.146 85.1549 213.218 85.4077C213.217 85.4711 213.235 85.5336 213.269 85.5899C213.309 85.7279 213.372 85.8603 213.456 85.9835V85.9835C213.479 86.0515 213.511 86.1174 213.549 86.1802C213.701 86.4033 213.877 86.6132 214.076 86.807C214.284 87.0323 214.511 87.2442 214.756 87.4411C215.027 87.6597 215.308 87.8565 215.605 88.0751C215.775 88.2038 215.957 88.3207 216.149 88.4249L216.599 88.7019C216.931 88.8987 217.296 89.0954 217.678 89.2849L231.884 96.3251L233.574 93.92Z" fill="#80C4D3"/>
<path opacity="0.6" d="M233.574 93.92L219.403 86.8799L218.553 86.4135L217.882 86.0053C217.856 85.9942 217.836 85.9763 217.823 85.9543C220.227 86.858 223.507 85.998 225.656 84.9194C226.916 84.3463 227.982 83.5026 228.749 82.4707C229.298 81.6719 229.486 80.7276 229.275 79.8179L229.564 79.6721L230.151 79.3879L314.143 37.8028L318.96 35.4124C319.411 35.201 319.878 34.9532 320.354 34.7346L324.415 32.7231C324.694 32.5936 325.007 32.5258 325.324 32.5258C325.641 32.5258 325.954 32.5936 326.233 32.7231L325.324 32.2712L322.86 31.1125C322.598 30.995 322.306 30.9336 322.011 30.9336C321.715 30.9336 321.423 30.995 321.161 31.1125C321.161 31.1125 321.161 31.1125 321.118 31.1125C320.634 31.353 320.141 31.608 319.615 31.8413L318.672 32.3004C318.119 32.5846 317.567 32.847 317.057 33.0948C316.692 33.277 316.352 33.4373 316.055 33.5977C315.757 33.758 315.553 33.8382 315.35 33.9475L314.101 34.5524L247.44 67.5522L226.14 78.0979C224.611 78.8267 223.727 79.6211 224.084 79.8762C224.122 79.908 224.165 79.935 224.212 79.9563L224.959 80.328C225.885 80.7872 225.138 81.8949 223.26 82.8059C221.383 83.7169 219.955 83.7461 219.012 83.3234L218.095 82.8715C217.903 82.7581 217.684 82.684 217.455 82.6549C217.225 82.6259 216.99 82.6426 216.769 82.7039L216.276 82.9517L215.223 83.4691L213.923 84.1105C213.651 84.2257 213.433 84.417 213.305 84.6528C213.176 84.8887 213.146 85.1549 213.218 85.4077C213.217 85.4711 213.235 85.5336 213.269 85.5899C213.309 85.7279 213.372 85.8603 213.456 85.9835V85.9835C213.479 86.0515 213.511 86.1174 213.549 86.1802C213.701 86.4033 213.877 86.6132 214.076 86.807C214.284 87.0323 214.511 87.2442 214.756 87.4411C215.027 87.6597 215.308 87.8565 215.605 88.0751C215.775 88.2038 215.957 88.3207 216.149 88.4249L216.599 88.7019C216.931 88.8987 217.296 89.0954 217.678 89.2849L231.884 96.3251L233.574 93.92Z" fill="white"/>
<path d="M398.994 208.479V15.2532C398.994 10.8002 397.15 9.98397 394.865 8.85433C392.579 7.7247 389.886 7.59352 386.632 9.20415L260.668 71.5963C258.956 72.5546 257.53 73.8461 256.509 75.3657C255.487 76.8853 254.898 78.5902 254.789 80.3419V273.56C254.789 276.781 255.936 277.933 258.188 279.092C260.439 280.25 263.863 281.22 267.117 279.609L393.08 217.217C394.927 216.387 396.462 215.127 397.508 213.58C398.555 212.034 399.07 210.265 398.994 208.479Z" fill="#37474F"/>
<path d="M393.699 210.11L265.408 273.669V79.6923L256.504 75.3633C255.454 76.8691 254.869 78.5798 254.805 80.3337V273.559C254.805 276.78 255.952 277.932 258.203 279.091C260.455 280.25 263.879 281.219 267.133 279.608L393.096 217.216C395.409 216.153 397.213 214.428 398.194 212.34L397.862 212.18L393.699 210.11Z" fill="#263238"/>
<path d="M392.96 13.7594L266.75 76.2974C265.549 76.9693 264.55 77.8743 263.833 78.9391C263.115 80.0039 262.7 81.1986 262.621 82.4266V274.224C262.621 277.678 265.484 279.092 268.968 277.357L392.96 215.956C394.318 215.192 395.449 214.164 396.26 212.957C397.072 211.749 397.542 210.395 397.633 209.004V16.077C397.633 13.5262 395.526 12.484 392.96 13.7594Z" fill="#455A64"/>
<path d="M335.196 235.488C335.196 238.36 333.165 241.69 330.65 242.936C328.135 244.183 326.113 242.856 326.113 240.021C326.113 237.186 328.144 233.812 330.65 232.573C333.157 231.334 335.196 232.617 335.196 235.488Z" fill="#263238"/>
<path d="M395.383 32.236V192.68C395.298 194.02 394.845 195.324 394.063 196.487C393.281 197.649 392.19 198.637 390.88 199.371L271.416 258.542C268.935 259.78 266.922 258.782 266.922 256.319V94.6792C267.059 92.4602 268.188 90.3721 270.074 88.8488L270.507 88.5209C270.793 88.3207 271.097 88.1403 271.416 87.9815L389.24 29.656L389.682 29.4301C392.817 27.8632 395.383 29.1313 395.383 32.236Z" fill="black"/>
<path d="M384.347 195.039C385.655 194.303 386.744 193.313 387.525 192.15C388.306 190.986 388.756 189.682 388.841 188.341V29.8281L271.416 87.9933C271.097 88.1521 270.793 88.3324 270.507 88.5326L270.074 88.8606C268.188 90.3838 267.059 92.472 266.922 94.6909V253.197L384.347 195.039Z" fill="#FAFAFA"/>
<path d="M278.094 92.9112L376.343 44.2422V188.354L278.094 237.023V92.9112Z" fill="#80C4D3"/>
<path d="M275.34 91.5273L278.093 92.9121V237.024L275.34 235.661V91.5273Z" fill="#80C4D3"/>
<path opacity="0.3" d="M275.34 91.5273L278.093 92.9121V237.024L275.34 235.661V91.5273Z" fill="black"/>
<path d="M275.34 91.5283L373.589 42.8594L376.333 44.2441L278.093 92.913L275.34 91.5283Z" fill="#80C4D3"/>
<path opacity="0.35" d="M275.34 91.5283L373.589 42.8594L376.333 44.2441L278.093 92.913L275.34 91.5283Z" fill="white"/>
<path d="M280.914 95.4206L283.786 96.8782C287.337 98.6711 301.186 98.2338 310.353 93.7007L384.558 56.9329L371.602 50.5195L280.914 95.4206Z" fill="#E0E0E0"/>
<path d="M290.669 230.422C287.601 230.422 285.172 230.086 283.999 229.489L281.34 228.148V96.0536L283.574 97.1905C284.891 97.8537 287.415 98.2181 290.669 98.2181C296.183 98.2181 304.262 97.1103 310.567 93.9984L384.134 57.5586V189.645L310.142 226.304C304.007 229.343 296.064 230.422 290.669 230.422V230.422Z" fill="#FAFAFA"/>
<path d="M383.709 58.1944V189.443L309.928 225.992C303.871 228.995 296.012 230.059 290.668 230.059C287.719 230.059 285.307 229.731 284.219 229.177L281.764 227.938V96.704L283.361 97.5129C284.737 98.2417 287.337 98.5915 290.668 98.5915C296.233 98.5915 304.44 97.4692 310.778 94.3281L383.709 58.2017V58.1944ZM384.558 56.9409L310.353 93.694C304.406 96.6092 296.47 97.8627 290.668 97.8627C287.541 97.8627 285.026 97.5129 283.786 96.8862L280.914 95.4286V228.361L283.786 229.818C285.026 230.453 287.541 230.802 290.668 230.802C296.47 230.802 304.397 229.585 310.353 226.641L384.524 189.895V56.9336L384.558 56.9409Z" fill="#E0E0E0"/>
<path d="M310.353 144.738C306.777 146.428 302.902 147.603 298.883 148.214V150.568C302.902 149.957 306.777 148.782 310.353 147.092L376.792 114.114V111.76L310.353 144.738Z" fill="#E0E0E0"/>
<path d="M310.353 150.525C306.776 152.212 302.901 153.386 298.883 154.001V156.348C302.901 155.736 306.775 154.564 310.353 152.879L376.792 119.894V117.547L310.353 150.525Z" fill="#E0E0E0"/>
<path d="M310.353 156.304C306.777 157.995 302.902 159.169 298.883 159.781V162.135C302.901 161.52 306.776 160.346 310.353 158.658L376.792 125.68V123.326L310.353 156.304Z" fill="#E0E0E0"/>
<path d="M310.353 162.091C306.775 163.776 302.901 164.948 298.883 165.56V167.914C302.902 167.303 306.777 166.128 310.353 164.438L376.792 131.46V129.113L310.353 162.091Z" fill="#E0E0E0"/>
<path d="M310.353 167.871C306.777 169.561 302.902 170.736 298.883 171.347V173.694C302.901 173.081 306.775 171.91 310.353 170.225L376.792 137.247V134.893L310.353 167.871Z" fill="#E0E0E0"/>
<path d="M310.353 173.65C306.777 175.34 302.902 176.515 298.883 177.126V179.48C302.902 178.869 306.777 177.694 310.353 176.004L376.792 143.026V140.672L310.353 173.65Z" fill="#E0E0E0"/>
<path d="M310.353 179.435C306.777 181.123 302.902 182.295 298.883 182.904V185.258C302.901 184.646 306.775 183.474 310.353 181.789L376.792 148.804V146.457L310.353 179.435Z" fill="#E0E0E0"/>
<path d="M310.353 185.214C306.777 186.905 302.902 188.079 298.883 188.691V191.045C302.901 190.43 306.776 189.256 310.353 187.568L376.792 154.59V152.236L310.353 185.214Z" fill="#E0E0E0"/>
<path d="M310.353 191.001C306.775 192.686 302.901 193.858 298.883 194.47V196.825C302.902 196.213 306.777 195.039 310.353 193.348L376.792 160.37V158.023L310.353 191.001Z" fill="#E0E0E0"/>
<path d="M310.353 196.781C306.777 198.471 302.902 199.646 298.883 200.257V202.604C302.901 201.992 306.775 200.82 310.353 199.135L376.792 166.157V163.803L310.353 196.781Z" fill="#E0E0E0"/>
<path d="M310.353 202.56C306.777 204.251 302.902 205.425 298.883 206.036V208.39C302.902 207.779 306.777 206.605 310.353 204.914L376.792 171.936V169.582L310.353 202.56Z" fill="#E0E0E0"/>
<path d="M310.353 208.347C306.777 210.035 302.902 211.207 298.883 211.816V214.17C302.902 213.559 306.777 212.384 310.353 210.694L376.792 177.716V175.369L310.353 208.347Z" fill="#E0E0E0"/>
<path opacity="0.15" d="M374.525 51.9531L347.915 65.4213L375.392 52.3831L374.525 51.9531ZM379.742 54.5404L324.84 81.258L380.634 55.0214L379.742 54.5404Z" fill="black"/>
<path opacity="0.03" d="M294.916 97.6573C289.877 98.1019 285.57 97.7666 283.786 96.8775L280.914 95.4199V228.352L283.786 229.81C285.553 230.706 289.877 231.041 294.916 230.597V97.6573Z" fill="black"/>
<path d="M333.25 125.205L333.862 124.768C334.236 124.499 334.253 124.36 334.253 123.813V116.897C334.253 116.351 334.253 116.256 333.853 116.358L333.25 116.526V115.717L336.708 114.004V114.813L336.037 115.294C335.722 115.52 335.688 115.695 335.688 116.198V123.158C335.688 123.646 335.688 123.762 336.045 123.675L336.708 123.5V124.309L333.25 126.014V125.205Z" fill="#455A64"/>
<path d="M337.449 123.115L337.849 122.809C338.213 122.535 338.476 122.175 338.605 121.774L340.559 117.453L338.46 114.705C338.206 114.392 338.07 114.37 337.755 114.421L337.398 114.479L337.526 113.597L340.686 112.03V112.854L340.109 113.269C340.059 113.301 340.017 113.342 339.987 113.388C339.956 113.435 339.938 113.487 339.933 113.54C339.929 113.593 339.937 113.647 339.959 113.697C339.98 113.747 340.014 113.793 340.058 113.831L341.417 115.645L342.717 112.584C342.895 112.176 342.929 111.994 342.615 112.045L342.097 112.111L342.207 111.28L344.977 109.902V110.726L344.535 111.068C344.19 111.317 343.941 111.65 343.821 112.023L341.995 116.228L344.144 119.049C344.174 119.109 344.217 119.164 344.272 119.21C344.327 119.256 344.393 119.291 344.464 119.315C344.536 119.338 344.612 119.348 344.689 119.345C344.765 119.342 344.84 119.325 344.909 119.297L345.3 119.194V120.025L341.85 121.738V120.914L342.403 120.521C342.464 120.487 342.516 120.442 342.555 120.388C342.593 120.335 342.617 120.275 342.624 120.212C342.631 120.15 342.622 120.087 342.597 120.028C342.572 119.969 342.532 119.916 342.479 119.872L341.111 118.094L339.684 121.337C339.531 121.665 339.488 121.876 339.777 121.818L340.355 121.694V122.474L337.449 123.932V123.115Z" fill="#455A64"/>
<path d="M334.102 206.424L335.198 205.877V206.343L334.102 206.883V206.424Z" fill="#455A64"/>
<path d="M336.278 206.751L336.575 206.54C336.614 206.513 336.644 206.478 336.661 206.439C336.679 206.399 336.685 206.356 336.677 206.314V204.616C336.677 204.47 336.677 204.39 336.541 204.448L336.227 204.601V204.288L337.025 203.756H337.127V206.022C337.127 206.183 337.127 206.197 337.229 206.168L337.509 206.088V206.365L336.252 206.992L336.278 206.751Z" fill="#455A64"/>
<path d="M337.769 206.846C338.094 206.673 338.368 206.437 338.569 206.158C338.769 205.878 338.891 205.562 338.925 205.235C338.925 204.893 338.78 204.762 338.593 204.776C338.474 204.904 338.343 205.023 338.203 205.133L338.16 204.813C338.359 204.671 338.521 204.496 338.637 204.297C338.753 204.099 338.819 203.882 338.831 203.661C338.831 203.384 338.695 203.268 338.449 203.391C338.283 203.474 338.154 203.602 338.084 203.756C338.149 203.813 338.188 203.888 338.194 203.967C338.191 204.049 338.166 204.13 338.122 204.203C338.078 204.276 338.016 204.34 337.939 204.39C337.744 204.485 337.676 204.39 337.676 204.178C337.7 203.938 337.79 203.705 337.937 203.499C338.085 203.292 338.286 203.118 338.525 202.991C338.993 202.757 339.307 202.874 339.307 203.37C339.288 203.752 339.127 204.12 338.848 204.419V204.419C339.163 204.375 339.434 204.419 339.434 204.951C339.391 205.403 339.219 205.839 338.933 206.22C338.647 206.601 338.256 206.916 337.795 207.137L337.769 206.846Z" fill="#455A64"/>
<path d="M339.803 203.88C339.764 203.491 339.841 203.101 340.027 202.745C340.213 202.389 340.501 202.08 340.865 201.846C341.408 201.569 341.927 201.65 341.927 202.735C341.974 203.134 341.899 203.537 341.71 203.904C341.521 204.271 341.224 204.589 340.848 204.827C340.168 205.162 339.803 204.798 339.803 203.88ZM341.409 203.02C341.409 202.189 341.188 202.043 340.873 202.196C340.559 202.349 340.312 202.874 340.312 203.595C340.312 204.317 340.516 204.638 340.856 204.47C341.196 204.302 341.409 203.836 341.409 203.02Z" fill="#455A64"/>
<path d="M342.938 202.051L344.034 201.512V201.971L342.938 202.51V202.051Z" fill="#455A64"/>
<path d="M283.719 96.834V104.071V113.596C286.947 109.858 288.154 106.68 288.154 104.071C288.181 102.642 287.789 101.231 287.014 99.9663C286.239 98.7017 285.106 97.6245 283.719 96.834V96.834Z" fill="#F0F0F0"/>
<path d="M283.719 96.834V104.071V113.596C286.947 109.858 288.154 106.68 288.154 104.071C288.181 102.642 287.789 101.231 287.014 99.9663C286.239 98.7017 285.106 97.6245 283.719 96.834V96.834Z" fill="#E0E0E0"/>
<path d="M283.583 96.768C287.134 98.5609 286.344 105.608 277.194 110.178L203.278 147.055L189.973 140.43L280.881 95.3906L283.583 96.768Z" fill="#E0E0E0"/>
<path d="M189.973 140.459L203.286 147.055V279.987L189.973 273.391V140.459Z" fill="#E0E0E0"/>
<path opacity="0.15" d="M189.973 140.459L203.286 147.055V279.987L189.973 273.391V140.459Z" fill="black"/>
<path d="M277.178 110.171L273.873 111.826L203.262 147.056V279.988L277.178 243.104C283.89 239.758 285.504 236.836 285.53 234.227V99.7422C285.49 103.862 282.706 107.339 277.178 110.171Z" fill="#F0F0F0"/>
<g opacity="0.1">
<path opacity="0.1" d="M210.73 155.881L273.891 124.579L277.204 122.925V120.52L273.891 122.174L210.73 153.476V155.881Z" fill="black"/>
<path opacity="0.1" d="M210.73 161.66L273.891 130.358L277.204 128.704V126.299L273.891 127.953L210.73 159.248V161.66Z" fill="black"/>
<path opacity="0.1" d="M210.73 167.439L273.891 136.138L277.204 134.483V132.078L273.891 133.732L210.73 165.027V167.439Z" fill="black"/>
<path opacity="0.1" d="M210.73 173.219L273.891 141.917L277.204 140.262V137.857L273.891 139.512L210.73 170.806V173.219Z" fill="black"/>
<path opacity="0.1" d="M210.73 178.998L273.891 147.696L277.204 146.042V143.637L273.891 145.284L210.73 176.586V178.998Z" fill="black"/>
<path opacity="0.1" d="M210.73 184.777L273.891 153.475L277.204 151.821V149.408L273.891 151.063L210.73 182.364V184.777Z" fill="black"/>
<path opacity="0.1" d="M210.73 190.549L273.891 159.254L277.204 157.6V155.188L273.891 156.842L210.73 188.144V190.549Z" fill="black"/>
<path opacity="0.1" d="M210.73 196.328L273.891 165.033L277.204 163.379V160.967L273.891 162.621L210.73 193.923V196.328Z" fill="black"/>
<path opacity="0.1" d="M210.73 202.107L273.891 170.813L277.204 169.158V166.746L273.891 168.4L210.73 199.702V202.107Z" fill="black"/>
<path opacity="0.1" d="M210.73 207.887L273.891 176.592L277.204 174.938V172.525L273.891 174.18L210.73 205.482V207.887Z" fill="black"/>
<path opacity="0.1" d="M210.73 213.668L273.891 182.373L277.204 180.712V178.307L273.891 179.961L210.73 211.263V213.668Z" fill="black"/>
<path opacity="0.1" d="M210.73 219.447L273.891 188.153L277.204 186.491V184.086L273.891 185.74L210.73 217.042V219.447Z" fill="black"/>
<path opacity="0.1" d="M210.73 225.226L273.891 193.925L277.204 192.27V189.865L273.891 191.52L210.73 222.821V225.226Z" fill="black"/>
<path opacity="0.1" d="M210.73 231.006L273.891 199.704L277.204 198.05V195.645L273.891 197.299L210.73 228.601V231.006Z" fill="black"/>
<path opacity="0.1" d="M210.73 236.785L273.891 205.483L277.204 203.829V201.424L273.891 203.078L210.73 234.38V236.785Z" fill="black"/>
<path opacity="0.1" d="M210.73 242.564L273.891 211.263L277.204 209.608V207.203L273.891 208.858L210.73 240.152V242.564Z" fill="black"/>
<path opacity="0.1" d="M210.73 248.344L273.891 217.042L277.204 215.387V212.982L273.891 214.637L210.73 245.931V248.344Z" fill="black"/>
<path opacity="0.1" d="M210.73 254.123L273.891 222.821L277.204 221.167V218.762L273.891 220.416L210.73 251.711V254.123Z" fill="black"/>
<path opacity="0.1" d="M210.73 259.902L273.891 228.6L277.204 226.946V224.541L273.891 226.195L210.73 257.49V259.902Z" fill="black"/>
</g>
<path opacity="0.15" d="M199.691 145.262L226.301 131.794L198.824 144.803L199.691 145.262ZM194.474 142.682L249.376 115.965L193.582 142.201L194.474 142.682Z" fill="black"/>
<path opacity="0.15" d="M198.825 144.803V180.966L199.674 145.255L198.825 144.803ZM194.024 167.06L194.475 142.653L193.625 142.201L194.024 167.06Z" fill="black"/>
<path d="M272.971 98.2768C272.87 98.2341 272.784 98.1703 272.72 98.0913C272.656 98.0122 272.617 97.9206 272.605 97.8249V97.8249V99.5376L275.477 98.1602C275.1 98.3481 274.676 98.4566 274.24 98.4769C273.805 98.4971 273.37 98.4286 272.971 98.2768V98.2768ZM285.715 93.0367L285.791 93.0003L279.615 96.0539L285.715 93.0367ZM285.791 93.0003L286.395 92.6942V92.2715C286.374 92.4247 286.309 92.5712 286.207 92.6982C286.105 92.8253 285.968 92.9289 285.808 93.0003H285.791Z" fill="#263238"/>
<path d="M285.731 93.0595L275.476 98.1611C275.105 98.3507 274.687 98.4633 274.257 98.4899C273.826 98.5165 273.394 98.4563 272.995 98.3141C272.392 98.0153 272.536 97.4614 273.301 97.0824L283.59 91.9809C283.961 91.7928 284.379 91.6812 284.809 91.6546C285.239 91.6281 285.671 91.6873 286.07 91.8278C286.64 92.0975 286.521 92.6514 285.731 93.0595Z" fill="#455A64"/>
<path d="M225.351 149.811C227.195 148.878 240.848 141.925 254.348 134.295C267.849 126.665 276.973 120.739 281.094 116.906C282.159 115.923 283.157 114.889 284.085 113.809C285.639 112.08 286.877 110.158 287.755 108.109V235.904V236.224C287.755 239.934 285.376 244.117 280.788 248.658C270.049 259.283 230.806 279.18 225.309 281.934L225.351 149.811Z" fill="#F5F5F5"/>
<path d="M287.374 109.952V235.465V236.194C287.374 239.838 285.029 243.919 280.509 248.386C270.161 258.626 233.143 277.538 225.777 281.27L225.845 150.021C228.343 148.753 241.571 142.004 254.647 134.6C268.3 126.882 277.331 121.015 281.478 117.159C282.551 116.165 283.561 115.121 284.502 114.033C285.621 112.76 286.591 111.395 287.399 109.959L287.374 109.952ZM288.249 104.078C288.249 106.687 287.042 109.864 283.814 113.603C282.894 114.671 281.904 115.693 280.849 116.664C276.04 121.139 265.105 127.822 254.179 133.995C239.583 142.252 224.995 149.605 224.995 149.605L224.859 282.545C224.859 282.545 269.405 260.419 281.087 248.867C286.567 243.445 288.13 239.225 288.155 236.201V104.07L288.249 104.078Z" fill="#E0E0E0"/>
<path d="M288.224 117.269C288.224 119.688 287.102 122.64 284.112 126.102C283.259 127.09 282.343 128.036 281.367 128.937C278.394 131.699 272.871 135.372 266.584 139.198C263.407 141.129 260.025 143.097 256.635 145.028C248.487 149.634 240.348 153.934 235.148 156.638V154.189C240.348 151.493 248.487 147.186 256.635 142.58C260.034 140.663 263.432 138.695 266.584 136.749C272.905 132.916 278.394 129.25 281.367 126.488C282.341 125.584 283.257 124.635 284.112 123.645C287.102 120.184 288.224 117.232 288.224 114.812V117.269Z" fill="#E0E0E0"/>
<path d="M288.224 122.78C288.224 125.2 287.102 128.151 284.112 131.613C283.259 132.602 282.343 133.548 281.367 134.448C278.394 137.21 272.871 140.884 266.584 144.71C263.407 146.641 260.025 148.609 256.635 150.54C248.487 155.146 240.348 159.446 235.148 162.15V159.701C240.348 157.004 248.487 152.697 256.635 148.091C260.034 146.175 263.432 144.207 266.584 142.261C272.905 138.427 278.394 134.762 281.367 132C282.341 131.095 283.257 130.146 284.112 129.157C287.102 125.695 288.224 122.744 288.224 120.324V122.78Z" fill="#E0E0E0"/>
<path d="M288.224 128.288C288.224 130.708 287.102 133.659 284.112 137.121C283.259 138.109 282.343 139.056 281.367 139.956C278.394 142.718 272.871 146.391 266.584 150.218C263.407 152.149 260.025 154.117 256.635 156.048C248.487 160.654 240.348 164.954 235.148 167.658V165.209C240.348 162.512 248.487 158.205 256.635 153.599C260.034 151.682 263.432 149.715 266.584 147.769C272.905 143.935 278.394 140.269 281.367 137.507C282.341 136.603 283.257 135.654 284.112 134.665C287.102 131.203 288.224 128.252 288.224 125.832V128.288Z" fill="#E0E0E0"/>
<path d="M288.224 133.798C288.224 136.217 287.102 139.169 284.112 142.631C283.259 143.619 282.343 144.566 281.367 145.466C278.394 148.228 272.871 151.901 266.584 155.727C263.407 157.659 260.025 159.626 256.635 161.558C248.487 166.164 240.348 170.464 235.148 173.167V170.719C240.348 168.022 248.487 163.715 256.635 159.109C260.034 157.192 263.432 155.224 266.584 153.279C272.905 149.445 278.394 145.779 281.367 143.017C282.341 142.113 283.257 141.164 284.112 140.175C287.102 136.713 288.224 133.761 288.224 131.342V133.798Z" fill="#E0E0E0"/>
<path d="M288.224 139.309C288.224 141.728 287.102 144.68 284.112 148.142C283.259 149.13 282.343 150.076 281.367 150.977C278.394 153.739 272.871 157.412 266.584 161.238C263.407 163.169 260.025 165.137 256.635 167.068C248.487 171.674 240.348 175.981 235.148 178.678V176.215C240.348 173.518 248.487 169.211 256.635 164.605C260.034 162.688 263.432 160.721 266.584 158.775C272.905 154.941 278.394 151.275 281.367 148.513C282.339 147.61 283.255 146.664 284.112 145.678C287.102 142.209 288.224 139.257 288.224 136.838V139.309Z" fill="#E0E0E0"/>
<path d="M288.224 144.803C288.224 147.223 287.102 150.175 284.112 153.636C283.259 154.625 282.343 155.571 281.367 156.471C278.394 159.233 272.871 162.907 266.584 166.733C263.407 168.664 260.025 170.632 256.635 172.563C248.487 177.169 240.348 181.476 235.148 184.173V181.724C240.348 179.028 248.487 174.728 256.635 170.114C260.034 168.198 263.432 166.23 266.584 164.284C272.905 160.451 278.394 156.785 281.367 154.023C282.339 153.119 283.255 152.173 284.112 151.188C287.06 147.718 288.224 144.803 288.224 142.369V144.803Z" fill="#E0E0E0"/>
<path d="M288.224 150.328C288.224 152.747 287.102 155.699 284.112 159.161C283.259 160.149 282.343 161.095 281.367 161.996C278.394 164.758 272.871 168.431 266.584 172.264C263.407 174.188 260.025 176.156 256.635 178.095C248.487 182.701 240.348 187.008 235.148 189.704V187.256C240.348 184.559 248.487 180.259 256.635 175.646C260.034 173.729 263.432 171.762 266.584 169.816C272.905 165.982 278.394 162.316 281.367 159.554C282.339 158.651 283.255 157.705 284.112 156.719C287.102 153.25 288.224 150.299 288.224 147.879V150.328Z" fill="#E0E0E0"/>
<path d="M288.224 155.837C288.224 158.257 287.102 161.209 284.112 164.67C283.259 165.659 282.343 166.605 281.367 167.505C278.394 170.268 272.871 173.941 266.584 177.774C263.407 179.698 260.025 181.666 256.635 183.605C248.487 188.211 240.348 192.518 235.148 195.214V192.765C240.348 190.069 248.487 185.769 256.635 181.156C260.034 179.239 263.432 177.271 266.584 175.325C272.905 171.492 278.394 167.826 281.367 165.064C282.339 164.161 283.255 163.214 284.112 162.229C287.102 158.76 288.224 155.808 288.224 153.389V155.837Z" fill="#E0E0E0"/>
<path d="M284.069 167.739C283.212 168.724 282.296 169.67 281.324 170.574C276.855 174.728 266.72 180.923 256.592 186.644C248.444 191.257 240.305 195.557 235.105 198.253V200.702C240.305 198.006 248.444 193.698 256.592 189.092C266.72 183.364 276.855 177.169 281.324 173.015C282.3 172.115 283.216 171.168 284.069 170.18C287.059 166.718 288.181 163.767 288.181 161.347V158.898C288.223 161.318 287.059 164.27 284.069 167.739Z" fill="#E0E0E0"/>
<path d="M284.069 173.227C283.212 174.212 282.296 175.158 281.324 176.062C276.855 180.216 266.72 186.411 256.592 192.132C248.444 196.745 240.305 201.045 235.105 203.741V206.19C240.305 203.494 248.444 199.186 256.592 194.58C266.72 188.852 276.855 182.657 281.324 178.51C282.298 177.606 283.214 176.657 284.069 175.668C287.059 172.206 288.181 169.255 288.181 166.835V164.408C288.223 166.828 287.059 169.779 284.069 173.227Z" fill="#E0E0E0"/>
<path d="M284.069 178.758C283.212 179.743 282.296 180.689 281.324 181.593C276.855 185.747 266.72 191.942 256.592 197.626C248.444 202.239 240.305 206.539 235.105 209.236V211.685C240.305 208.988 248.444 204.681 256.592 200.075C266.72 194.347 276.855 188.152 281.324 184.005C282.298 183.101 283.214 182.152 284.069 181.163C287.059 177.701 288.181 174.749 288.181 172.33V169.881C288.223 172.337 287.059 175.296 284.069 178.758Z" fill="#E0E0E0"/>
<path opacity="0.07" d="M242.684 273.26C256.456 265.826 274.306 255.565 281.086 248.86C286.566 243.438 288.129 239.218 288.155 236.194V104.07C288.155 106.679 286.948 109.857 283.72 113.596C283.72 113.596 285.343 188.304 277.135 221.086C268.928 253.867 242.684 273.26 242.684 273.26Z" fill="black"/>
<path opacity="0.2" d="M361.73 56.2539L349.012 62.5507L362.724 69.3431V94.6031L369.87 84.7207L375.443 88.3428V63.039L361.73 56.2539Z" fill="black"/>
<path d="M363.293 55.4531L377.006 62.2382V89.6846L371.432 86.0698L364.287 95.945V68.5423L350.574 61.7499L363.293 55.4531Z" fill="#80C4D3"/>
<path opacity="0.25" d="M363.293 55.4531L350.574 61.7499L364.287 68.5423L377.006 62.2382L363.293 55.4531Z" fill="white"/>
<path d="M439.25 189.523C458.775 189.523 474.602 181.991 474.602 172.7C474.602 163.409 458.775 155.877 439.25 155.877C419.726 155.877 403.898 163.409 403.898 172.7C403.898 181.991 419.726 189.523 439.25 189.523Z" fill="#E6E6E6"/>
<path d="M74.5046 287.942C92.4047 287.942 106.916 281.036 106.916 272.516C106.916 263.996 92.4047 257.09 74.5046 257.09C56.6046 257.09 42.0938 263.996 42.0938 272.516C42.0938 281.036 56.6046 287.942 74.5046 287.942Z" fill="#E6E6E6"/>
<path d="M315.14 317.6C333.766 317.6 348.866 310.411 348.866 301.541C348.866 292.672 333.766 285.482 315.14 285.482C296.514 285.482 281.414 292.672 281.414 301.541C281.414 310.411 296.514 317.6 315.14 317.6Z" fill="#E6E6E6"/>
<path d="M147.742 240.757C166.368 240.757 181.468 233.567 181.468 224.698C181.468 215.828 166.368 208.639 147.742 208.639C129.115 208.639 114.016 215.828 114.016 224.698C114.016 233.567 129.115 240.757 147.742 240.757Z" fill="#E6E6E6"/>
<path d="M465.468 52.8867L470.118 61.3998L462.885 67.5965L456.25 57.1015L465.468 52.8867Z" fill="#F28F8F"/>
<path d="M448.016 33.9141C452.63 33.9141 457.711 35.6334 459.457 39.2511L466.63 54.1042C466.63 54.1042 462.553 60.0741 456.085 59.6442L448.016 33.9141Z" fill="#02897A"/>
<path d="M465.109 62.7242C466.46 60.2168 466.794 60.0974 467.595 59.5482C468.396 58.999 473.322 58.2706 475.366 58.0915C477.757 57.8886 478.63 58.3303 477.961 60.3959C476.119 65.6056 473.864 70.6602 471.218 75.5116C470.572 76.3594 470.453 77.1474 467.739 77.422C465.216 77.6608 462.048 77.8041 461.116 77.8518C460.183 77.8996 458.892 78.1503 459.717 75.4042C460.784 72.302 462.021 69.2607 463.423 66.2942C464.463 64.0137 465.109 62.7242 465.109 62.7242Z" fill="#37474F"/>
<path d="M411.24 147.197C410.044 146.6 409.363 148.057 408.323 149.227C407.429 150.087 406.732 151.13 406.278 152.283C406.027 153.656 407.283 155.865 408.669 157.059C410.056 158.253 411.658 159.125 412.16 161.752C412.29 162.957 412.758 164.101 413.511 165.052C414.264 166.003 415.272 166.721 416.416 167.124C419.405 168.414 423.41 167.996 424.785 167.124C426.387 166.086 424.917 164.939 422.669 161.716C419.728 157.513 417.433 154.552 417.433 150.576L411.24 147.197Z" fill="#263238"/>
<path d="M413.594 143.746L411.203 147.328C410.687 148.06 410.483 148.966 410.635 149.848C410.788 150.73 411.284 151.516 412.016 152.032L412.088 152.092C412.823 152.528 413.688 152.694 414.532 152.561C415.377 152.428 416.149 152.004 416.714 151.364L420.492 147.256L413.594 143.746Z" fill="#FFA8A7"/>
<path d="M457.995 74.6875C458.151 79.2007 456.872 97.4327 453.751 105.492C450.631 113.551 448.826 118.566 447.845 120.25C446.865 121.933 418.579 149.418 418.579 149.418C418.579 149.418 413.797 149.072 413.02 144.428C413.02 144.428 424.604 124.751 427.115 120.715C429.625 116.68 438.52 110.495 438.52 110.495L437.707 75.2009L457.995 74.6875Z" fill="#37474F"/>
<path d="M416.093 70.2947C416.093 69.5187 418.484 60.5997 419.679 56.4805L428.442 59.4893L426.386 65.9845L418.675 73.9483C417.858 73.7857 417.134 73.316 416.654 72.6362C416.173 71.9563 415.972 71.1182 416.093 70.2947V70.2947Z" fill="#FFA8A7"/>
<path d="M451.766 170.739L457.746 169.381L455.766 160.684L449.786 162.042L451.766 170.739Z" fill="#FFA8A7"/>
<path d="M457.999 74.6879H429.306C428.679 78.8716 428.32 83.0909 428.23 87.3202C428.003 99.7375 439.575 122.292 439.575 122.292C439.02 127.31 439.27 132.384 440.317 137.324C442.851 147.21 449.761 163.961 449.761 163.961C449.761 163.961 454.101 164.57 456.241 162.075C456.241 162.075 452.415 128.082 451.387 119.378C450.275 109.946 447.406 92.7408 447.406 92.7408C449.3 90.8561 451.017 88.8018 452.535 86.6038C455.196 83.065 457.056 78.9912 457.987 74.6641" fill="#37474F"/>
<path d="M438.545 34.1655C433.046 35.4908 425.55 37.2101 423.386 43.1561C421.222 49.1021 418.102 59.6449 418.102 59.6449C419.297 61.7343 425.932 63.4656 428.24 62.2597L429.316 58.6778V74.6532C433.62 79.3335 448.612 81.5066 458.008 74.6532V44.8038C458.008 40.0279 455.354 34.2968 448.026 33.8789L438.545 34.1655Z" fill="#02897A"/>
<path d="M429.316 58.7115L432.078 50.0312L429.316 62.5919V58.7115Z" fill="#E0E0E0"/>
<path d="M436.479 9.77014C435.986 9.71532 435.486 9.77276 435.019 9.93819C434.551 10.1036 434.126 10.3727 433.777 10.7253C432.582 11.9193 432.857 14.1043 433.777 19.1548L437.364 19.5607L436.479 9.77014Z" fill="#263238"/>
<path d="M457.411 8.31499C458.165 8.32288 458.913 8.18082 459.611 7.89709C460.711 7.26429 460.998 8.51795 460.388 9.60447C459.99 10.3831 459.398 11.0466 458.669 11.5316C457.941 12.0166 457.1 12.3068 456.227 12.3745C456.227 12.2193 455.199 9.56865 455.199 9.56865L457.411 8.31499Z" fill="#263238"/>
<path d="M438.165 19.56C437.639 19.8824 436.874 18.8556 436.216 18.175C435.959 17.8784 435.63 17.6523 435.261 17.5181C434.892 17.3839 434.494 17.3462 434.106 17.4083C433.718 17.4705 433.353 17.6306 433.044 17.8734C432.736 18.1163 432.494 18.4338 432.343 18.7959C431.255 21.0883 433.73 24.1449 435.188 25.1478C435.592 25.501 436.099 25.7168 436.634 25.764C437.169 25.8112 437.705 25.6874 438.165 25.4105L438.548 34.1862C439.192 35.5919 440.174 36.8168 441.407 37.7521C442.639 38.6873 444.084 39.304 445.613 39.5472C450.778 40.2397 449.714 35.9652 448.004 33.9116V30.7237C449.297 30.9963 450.625 31.0607 451.937 30.9147C452.607 30.7356 454.209 28.8014 455.249 26.6284C457.455 22.2774 457.945 17.2582 456.624 12.5634C454.771 4.707 446.318 4.4682 441.285 7.63223C436.252 10.7963 438.165 19.56 438.165 19.56Z" fill="#FFA8A7"/>
<path d="M438.163 20.4573C437.9 20.4573 436.883 18.7738 436.214 18.1768C435.293 17.341 436.477 9.81897 436.477 9.81897C436.223 9.01047 436.172 8.15206 436.328 7.31926C436.485 6.48646 436.844 5.7048 437.373 5.04307C439.191 3.13271 442.706 3.45509 445.276 3.37151C448.438 3.38392 451.57 2.75428 454.482 1.52084C458.14 -0.0671418 458.415 -0.246237 458.857 1.35369C459.211 2.67589 459.254 4.06165 458.985 5.40343C458.715 6.74521 458.14 8.00692 457.303 9.09064L456.108 11.0249C456.108 11.0249 454.996 11.9562 451.588 12.3741C448.181 12.792 442.371 10.9532 441.642 10.8577C440.649 10.7264 440.446 11.6816 439.908 14.2964C439.454 16.553 439.071 20.4453 438.163 20.4573Z" fill="#263238"/>
<path d="M436.49 10.3688L433.262 8.63757C433.365 8.42705 433.509 8.23898 433.685 8.08414C433.861 7.9293 434.066 7.81075 434.288 7.73531C434.51 7.65986 434.745 7.62902 434.98 7.64452C435.214 7.66003 435.443 7.72159 435.653 7.82567C436.096 8.05779 436.431 8.45312 436.587 8.92786C436.744 9.40261 436.709 9.91946 436.49 10.3688V10.3688Z" fill="#263238"/>
<path d="M448.001 30.7249C445.802 30.3037 443.645 29.6843 441.557 28.8742C440.579 28.3585 439.777 27.5649 439.25 26.5938C439.502 27.5687 439.95 28.4825 440.565 29.2802C441.761 30.8443 448.001 31.9905 448.001 31.9905V30.7249Z" fill="#F28F8F"/>
<path d="M448.159 19.3936C448.162 19.6512 448.064 19.8997 447.885 20.0852C447.706 20.2708 447.461 20.3783 447.203 20.3846C447.074 20.3815 446.947 20.3531 446.829 20.301C446.712 20.2489 446.605 20.1741 446.517 20.081C446.428 19.9879 446.358 19.8782 446.312 19.7582C446.265 19.6382 446.243 19.5102 446.246 19.3816C446.243 19.124 446.342 18.8755 446.521 18.69C446.7 18.5044 446.945 18.3969 447.203 18.3906C447.332 18.3937 447.458 18.4221 447.576 18.4742C447.694 18.5263 447.8 18.6011 447.889 18.6942C447.978 18.7873 448.047 18.897 448.094 19.017C448.14 19.137 448.162 19.265 448.159 19.3936V19.3936Z" fill="#263238"/>
<path d="M447.142 15.7762L445.098 16.9702C445.02 16.8317 444.971 16.6792 444.953 16.5216C444.935 16.364 444.949 16.2044 444.993 16.0521C445.038 15.8998 445.112 15.7579 445.212 15.6347C445.312 15.5114 445.436 15.4094 445.576 15.3344C445.845 15.197 446.155 15.1661 446.446 15.2481C446.736 15.33 446.985 15.5187 447.142 15.7762Z" fill="#263238"/>
<path d="M447.573 25.8047L449.76 26.6285C449.652 26.915 449.438 27.149 449.162 27.2823C448.886 27.4156 448.57 27.438 448.278 27.3449C448.13 27.2904 447.994 27.2073 447.879 27.1003C447.763 26.9933 447.67 26.8645 447.604 26.7213C447.539 26.5782 447.502 26.4235 447.497 26.2662C447.491 26.1089 447.517 25.952 447.573 25.8047V25.8047Z" fill="#F28F8F"/>
<path d="M456.693 16.5755L454.828 15.1428C455.015 14.9011 455.289 14.7403 455.591 14.6937C455.894 14.647 456.202 14.718 456.454 14.892C456.581 14.9862 456.689 15.1047 456.77 15.2406C456.851 15.3765 456.904 15.5272 456.926 15.6838C456.948 15.8405 456.939 16 456.899 16.1531C456.859 16.3061 456.789 16.4497 456.693 16.5755V16.5755Z" fill="#263238"/>
<path d="M456.12 19.1201C456.123 19.3778 456.025 19.6263 455.846 19.8118C455.667 19.9973 455.422 20.1049 455.164 20.1111C455.035 20.108 454.908 20.0796 454.79 20.0275C454.673 19.9754 454.566 19.9007 454.477 19.8076C454.389 19.7144 454.319 19.6047 454.273 19.4847C454.226 19.3647 454.204 19.2368 454.207 19.1082C454.204 18.8506 454.303 18.602 454.482 18.4165C454.661 18.231 454.906 18.1235 455.164 18.1172C455.423 18.1265 455.668 18.2367 455.847 18.4241C456.025 18.6115 456.123 18.8613 456.12 19.1201V19.1201Z" fill="#263238"/>
<path d="M451.611 19L450.715 24.6833L453.859 24.3132L451.611 19Z" fill="#F28F8F"/>
<path d="M457.063 166.481L456.871 165.621C457.493 165.74 460.183 170.194 462.849 172.128C465.766 174.242 468.289 175.495 469.592 176.45C471.337 177.728 468.815 180.343 464.523 180.582C462.395 180.689 458.545 180.044 457.349 178.91C456.154 177.776 455.293 175.901 454.337 175.089C453.38 174.277 451.479 173.561 450.822 172.522C450.47 171.49 450.344 170.395 450.451 169.31C450.451 168.188 450.535 166.923 450.918 166.982L451.061 167.627C452.17 168.192 453.404 168.467 454.648 168.427C455.688 168.379 457.565 168.152 457.063 166.481Z" fill="#263238"/>
<path d="M450.646 113.6C450.646 113.6 448.099 95.5348 447.418 92.7409C449.464 91.6252 451.366 90.2661 453.085 88.6934C451.899 90.3869 450.605 92.0021 449.211 93.529L450.646 113.6Z" fill="#263238"/>
<path d="M435.281 112.967C435.281 112.967 438.342 120.572 439.585 122.256C439.585 122.256 439.274 128.059 439.31 129.229L437.708 130.626C437.666 128.001 437.907 125.379 438.426 122.805C437.02 119.651 435.966 116.351 435.281 112.967Z" fill="#263238"/>
<path d="M426.424 65.9824C426.424 65.9824 450.538 68.5614 453.371 67.6898C456.205 66.8182 460.006 64.0124 462.003 62.8184C463.999 61.6244 465.518 61.5528 465.518 62.0423C465.518 62.5318 463.772 65.1944 463.378 66.3048C462.983 67.4152 465.255 67.4152 468.256 66.7227C471.256 66.0302 472.452 64.3347 473.229 65.3138C474.006 66.2928 471.567 71.2837 466.594 73.1582C461.62 75.0327 457.926 73.7791 453.813 73.9582C449.701 74.1373 424.368 75.7491 418.665 73.9582C418.514 73.0453 418.618 72.1086 418.966 71.2512C419.314 70.3938 419.893 69.6489 420.637 69.0987C422.361 67.7175 424.321 66.6614 426.424 65.9824V65.9824Z" fill="#FFA8A7"/>
<path d="M292.736 181.023C292.796 180.247 294.266 171.889 295.271 167.209L305.11 170.218L303.532 176.773L295.354 184.677C294.531 184.522 293.798 184.056 293.311 183.375C292.823 182.694 292.617 181.852 292.736 181.023V181.023Z" fill="#FFA8A7"/>
<path d="M314.302 110.268H319.085C322.614 110.268 325.998 111.668 328.493 114.16C330.989 116.652 332.391 120.032 332.391 123.557V157.418H300.996V123.557C300.996 120.032 302.398 116.652 304.893 114.16C307.389 111.668 310.773 110.268 314.302 110.268Z" fill="#263238"/>
<path d="M340.331 163.459L344.981 171.972L337.737 178.157L331.113 167.662L340.331 163.459Z" fill="#F28F8F"/>
<path d="M322.875 144.475C327.49 144.475 332.571 146.194 334.316 149.812L341.489 164.665C341.489 164.665 337.413 170.635 330.945 170.217L322.875 144.475Z" fill="#455A64"/>
<path d="M326.604 291.776C328.192 293.898 329.977 295.865 331.936 297.651C332.25 297.903 332.5 298.226 332.665 298.594C332.869 299.215 333.132 300.707 330.37 301.316C328.97 301.623 327.52 301.625 326.12 301.322C324.719 301.019 323.4 300.418 322.252 299.561C320.232 297.937 320.471 295.084 318.606 293.209C317.219 291.836 315.342 291.299 314.302 289.627C313.573 288.433 313.967 287.012 314.625 285.257C315.282 283.502 315.749 281.902 316.382 282.129L316.167 283.013C316.824 284.409 320.949 285.293 322.97 284.624C324.057 287.069 325.27 289.456 326.604 291.776Z" fill="#263238"/>
<path d="M328.23 293.829C327.668 293.172 327.118 292.503 326.604 291.775C325.547 290.017 324.6 288.195 323.771 286.319C323.232 285.201 323.138 283.921 323.508 282.737L324.87 278.14L317.697 276.492L316.143 282.928C315.808 284.396 316.872 285.853 318.821 287.978C320.77 290.103 323.017 294.784 324.799 296.109C326.58 297.435 328.039 297.566 328.947 297.112C329.856 296.658 330.083 296.241 328.23 293.829Z" fill="#FFA8A7"/>
<path d="M307.311 295.823V294.808C307.718 296.002 309.559 301.089 312.356 303.644C314.592 305.662 317.629 308.014 318.394 310.27C319.159 312.527 314.174 313.411 312.093 313.041C309.317 312.576 306.772 311.212 304.848 309.16C303.653 307.691 302.888 305.948 302.027 304.79C301.166 303.632 299.206 302.402 298.751 301.017C298.607 299.769 298.742 298.505 299.146 297.316C299.48 296.122 299.827 294.701 300.258 294.808V295.644C301.281 296.441 302.547 296.862 303.844 296.838C304.824 296.838 307.323 296.611 307.311 295.823Z" fill="#263238"/>
<path d="M314.377 305.423L312.357 303.632C310.483 301.649 309.02 299.316 308.053 296.766C307.563 295.589 307.311 294.327 307.311 293.053V289.029H300.258V295.572V295.751C300.593 297.22 303.844 301.112 305.674 303.655C307.174 305.841 309.461 307.364 312.058 307.906C314.748 308.264 316.146 307.428 314.377 305.423Z" fill="#FFA8A7"/>
<path d="M301.654 186.264C296.19 198.204 301.857 240.243 301.857 240.243C301.69 242.19 299.466 245.998 298.653 254.571C297.673 264.648 300.183 289.937 300.183 289.937C301.263 290.57 302.483 290.927 303.734 290.977C304.985 291.027 306.229 290.768 307.356 290.223C307.356 290.223 314.087 252.123 315.354 242.106L319.395 209.964L325.373 241.33C323.774 243.788 322.45 246.415 321.428 249.162C320.005 253.592 317.124 278.833 317.124 278.833C318.096 279.72 319.259 280.374 320.522 280.745C321.786 281.115 323.118 281.192 324.417 280.97C324.417 280.97 338.225 246.345 338.847 239.276C339.217 235.038 333.024 184.568 333.024 184.568L301.654 186.264Z" fill="#37474F"/>
<path d="M319.348 209.917L320.304 203.016C320.304 203.016 327.824 201.464 331.231 198.24C328.879 200.995 325.802 203.037 322.348 204.138L321.344 210.801L322.54 226.239L319.348 209.917Z" fill="#263238"/>
<path d="M311.364 144.797C309.351 145.286 307.473 146.22 305.87 147.53C304.266 148.84 302.977 150.493 302.098 152.367C300.808 155.216 300.687 158.457 301.764 161.393L306.582 175.518C306.582 175.518 304.298 181.046 301.632 186.264C313.91 193.105 329.225 189.511 332.919 184.52C333.075 183.458 332.859 178.682 333.158 173.261C333.469 167.471 334.27 160.928 333.362 157.358C331.664 150.707 328.496 144.475 322.195 144.475L311.364 144.797Z" fill="#F03E3D"/>
<path d="M309.485 144.797C305.3 145.382 299.155 146.23 297.027 156.164C294.899 166.097 294.266 169.739 294.266 169.739C295.63 171.076 297.256 172.118 299.041 172.8C300.826 173.482 302.733 173.789 304.643 173.703L306.807 166.062L309.485 144.797Z" fill="#455A64"/>
<path d="M311.863 153.179C311.141 153.179 310.425 153.037 309.758 152.761C309.091 152.485 308.485 152.08 307.974 151.57C307.463 151.06 307.058 150.455 306.782 149.788C306.506 149.122 306.363 148.408 306.363 147.687V131.699H311.863V153.179Z" fill="#263238"/>
<path d="M327.238 116.607C328.899 117.586 330.944 121.753 330.74 130.481C330.573 137.884 328.17 139.723 326.963 140.248C325.755 140.773 323.436 140.451 321.176 140.069V144.511C321.176 144.511 324.297 148.093 324.105 150.182C323.914 152.271 319.586 152.701 316.657 150.707C314.77 149.341 313.15 147.641 311.875 145.693V134.947C311.637 135.238 311.343 135.479 311.011 135.656C310.679 135.833 310.315 135.943 309.94 135.978C309.566 136.014 309.188 135.975 308.828 135.863C308.469 135.752 308.135 135.57 307.846 135.329C305.347 133.669 305.252 129.574 306.71 128.165C308.169 126.756 311.289 127.162 311.875 129.192C314.83 129.062 317.706 128.201 320.244 126.685C322.125 125.678 323.741 124.24 324.957 122.488C326.173 120.736 326.954 118.72 327.238 116.607V116.607Z" fill="#FFA8A7"/>
<path d="M322.47 128.631C322.473 128.814 322.421 128.993 322.322 129.146C322.223 129.3 322.081 129.421 321.913 129.494C321.746 129.568 321.561 129.59 321.38 129.56C321.2 129.529 321.033 129.446 320.9 129.321C320.766 129.196 320.673 129.034 320.631 128.857C320.588 128.679 320.599 128.493 320.662 128.321C320.725 128.15 320.837 128.001 320.984 127.892C321.132 127.784 321.307 127.721 321.49 127.712C321.615 127.707 321.74 127.727 321.857 127.771C321.974 127.814 322.082 127.881 322.173 127.967C322.264 128.052 322.337 128.155 322.388 128.269C322.439 128.383 322.467 128.506 322.47 128.631V128.631Z" fill="#263238"/>
<path d="M322.722 134.898L324.886 135.591C324.847 135.736 324.78 135.873 324.687 135.991C324.594 136.11 324.479 136.208 324.347 136.281C324.215 136.354 324.07 136.399 323.92 136.413C323.77 136.428 323.618 136.412 323.475 136.367C323.184 136.266 322.944 136.057 322.803 135.784C322.663 135.51 322.634 135.193 322.722 134.898V134.898Z" fill="#F28F8F"/>
<path d="M330.107 125.766L328.23 124.464C328.309 124.337 328.413 124.227 328.536 124.142C328.658 124.056 328.797 123.996 328.944 123.966C329.091 123.936 329.242 123.936 329.388 123.966C329.535 123.996 329.674 124.056 329.797 124.142C330.048 124.32 330.221 124.589 330.279 124.891C330.337 125.194 330.275 125.507 330.107 125.766V125.766Z" fill="#263238"/>
<path d="M329.679 127.951C329.695 128.203 329.611 128.451 329.446 128.641C329.28 128.831 329.046 128.948 328.794 128.966C328.543 128.969 328.301 128.876 328.118 128.704C327.935 128.533 327.826 128.297 327.814 128.047C327.807 127.924 327.825 127.802 327.866 127.687C327.907 127.571 327.971 127.465 328.053 127.374C328.135 127.283 328.234 127.209 328.345 127.157C328.456 127.104 328.576 127.074 328.698 127.068C328.821 127.061 328.943 127.079 329.059 127.12C329.174 127.161 329.281 127.225 329.372 127.307C329.463 127.389 329.537 127.488 329.589 127.598C329.642 127.709 329.672 127.829 329.679 127.951V127.951Z" fill="#263238"/>
<path d="M325.277 127.424L325.433 133.024L328.386 132.104L325.277 127.424Z" fill="#F28F8F"/>
<path d="M321.179 140.07C318.788 139.759 313.886 138.35 313.121 136.416C313.426 137.398 314.027 138.261 314.843 138.888C316.301 140.141 321.179 141.562 321.179 141.562V140.07Z" fill="#F28F8F"/>
<path d="M339.959 173.285C341.31 170.777 341.645 170.67 342.458 170.121C343.271 169.571 348.185 168.831 350.229 168.652C352.62 168.449 353.493 168.891 352.823 170.968C350.959 176.173 348.689 181.223 346.033 186.072C345.387 186.932 345.256 187.72 342.554 187.982C339.852 188.245 336.851 188.365 335.919 188.424C334.986 188.484 333.695 188.711 334.532 185.965C335.598 182.864 336.831 179.823 338.226 176.855C339.314 174.598 339.959 173.285 339.959 173.285Z" fill="#37474F"/>
<path d="M303.534 176.82C303.534 176.82 325.4 179.125 328.233 178.253C331.067 177.382 334.869 174.552 336.913 173.382C338.957 172.212 340.428 172.116 340.428 172.594C340.428 173.071 338.682 175.758 338.276 176.856C337.869 177.955 340.165 177.967 343.154 177.274C346.142 176.582 347.35 174.886 348.139 175.865C348.928 176.844 346.477 181.835 341.504 183.71C336.53 185.584 332.836 184.343 328.724 184.51C324.611 184.677 301.059 186.516 295.356 184.725C295.205 183.812 295.31 182.875 295.658 182.018C296.006 181.16 296.584 180.415 297.329 179.865C299.173 178.447 301.283 177.411 303.534 176.82Z" fill="#FFA8A7"/>
<path d="M305.109 171.208C306.048 168.67 306.846 166.084 307.5 163.459C307.5 163.459 307.106 169.226 305.48 172.318L305.109 171.208Z" fill="#37474F"/>
<path d="M128.186 100.203L124.301 108.585L131.534 114.77L137.786 104.227L128.186 100.203Z" fill="#F28F8F"/>
<path d="M146.021 81.0293C141.406 81.0293 136.325 82.7606 134.579 86.3664C132.834 89.9722 127.406 101.231 127.406 101.231C127.406 101.231 131.483 107.201 137.951 106.771L146.021 81.0293Z" fill="#37474F"/>
<path d="M166.036 214.025H159.652V223.303H166.036V214.025Z" fill="#FFA8A7"/>
<path d="M143.587 202.546L137.207 202.766L137.526 212.037L143.907 211.818L143.587 202.546Z" fill="#FFA8A7"/>
<path d="M165.604 123.451C165.604 129.54 166.393 168.894 166.393 168.894C166.548 170.637 168.186 173.873 167.827 180.595C167.349 189.729 166.56 215.101 166.56 215.101C166.56 215.101 163.571 218.062 159.387 215.101C159.387 215.101 153.6 180.619 152.465 171.568C151.46 163.676 149.775 142.22 149.775 142.22L143.857 167.473C143.857 167.473 144.897 173.443 145.136 177.598C145.375 181.753 144.048 206.003 144.048 206.003C143.014 206.647 141.828 207.011 140.61 207.057C139.392 207.103 138.182 206.83 137.102 206.265C137.102 206.265 131.985 170.9 131.328 167.115C130.67 163.33 135.811 123.451 135.811 123.451H165.604Z" fill="#37474F"/>
<path d="M156.006 81.3156H156.101C158.84 82.0034 161.27 83.5866 163.003 85.8131C164.736 88.0396 165.673 90.7814 165.666 93.6016V123.451C161.194 128.31 145.605 130.615 135.777 123.451V92.4077C135.777 87.4527 138.539 81.4828 146.155 81.041L156.006 81.3156Z" fill="#80C4D3"/>
<path d="M158.155 55.9196C158.668 55.8623 159.187 55.9217 159.673 56.0934C160.16 56.265 160.601 56.5444 160.964 56.9106C162.16 58.1045 161.921 60.4328 160.964 65.6743L157.234 66.1042L158.155 55.9196Z" fill="#263238"/>
<path d="M136.388 54.4629C135.587 54.4652 134.794 54.3068 134.056 53.9973C132.861 53.3406 132.61 54.642 133.231 55.7643C133.648 56.5746 134.266 57.2646 135.025 57.7684C135.785 58.2722 136.662 58.5729 137.571 58.6418C137.571 58.4866 138.635 55.7405 138.635 55.7405L136.388 54.4629Z" fill="#263238"/>
<path d="M156.4 66.1044C156.962 66.4387 157.751 65.3761 158.432 64.6597C158.699 64.3491 159.042 64.1124 159.427 63.9721C159.812 63.8319 160.227 63.7929 160.631 63.8588C161.036 63.9247 161.417 64.0934 161.737 64.3487C162.057 64.6039 162.307 64.9371 162.461 65.3164C163.657 67.7043 161.015 70.8803 159.508 71.9191C159.086 72.2868 158.557 72.5115 157.999 72.5608C157.44 72.6101 156.881 72.4816 156.4 72.1937L156.005 81.3156C155.336 82.7791 154.314 84.0542 153.031 85.0272C151.748 86.0001 150.244 86.6406 148.653 86.8915C143.285 87.6198 144.397 83.2021 146.154 81.0291V77.7098C144.816 78 143.439 78.0726 142.077 77.9247C141.372 77.7337 139.686 75.7159 138.622 73.4593C137.427 70.9281 135.406 66.4387 137.2 58.8331C139.124 50.6544 147.959 50.4036 153.148 53.699C158.337 56.9944 156.4 66.1044 156.4 66.1044Z" fill="#FFA8A7"/>
<path d="M156.398 67.0351C156.685 67.0351 157.737 65.2919 158.43 64.6472C159.387 63.7756 158.155 55.9073 158.155 55.9073C158.155 55.9073 159.124 52.9343 157.235 50.9523C155.346 48.9703 151.675 49.3046 148.997 49.2091C145.711 49.2292 142.456 48.5749 139.433 47.2868C135.631 45.6391 135.344 45.4481 134.878 47.1077C134.509 48.4827 134.463 49.9241 134.743 51.3199C135.023 52.7156 135.621 54.0281 136.492 55.1551L138.381 55.8476C138.381 55.8476 139.397 56.755 142.948 57.1848C146.222 57.427 149.512 57.367 152.775 57.0058C153.803 56.8625 153.971 57.8535 154.581 60.5877C155.059 62.9756 155.465 67.0232 156.398 67.0351Z" fill="#263238"/>
<path d="M158.144 56.5403L161.504 54.7374C161.397 54.5119 161.246 54.3104 161.059 54.1452C160.872 53.98 160.653 53.8545 160.416 53.7763C160.179 53.6981 159.928 53.6689 159.68 53.6905C159.431 53.712 159.189 53.7838 158.969 53.9016C158.519 54.1519 158.182 54.5653 158.029 55.0564C157.875 55.5475 157.917 56.0787 158.144 56.5403V56.5403Z" fill="#263238"/>
<path d="M146.164 77.7087C148.455 77.279 150.701 76.6354 152.871 75.7864C153.893 75.2514 154.727 74.4184 155.262 73.3984C155.001 74.412 154.538 75.3623 153.899 76.1923C152.632 77.8161 146.152 79.0101 146.152 79.0101L146.164 77.7087Z" fill="#F28F8F"/>
<path d="M147.359 64.8628C147.364 65.0606 147.427 65.2526 147.541 65.4146C147.655 65.5766 147.814 65.7014 147.998 65.7732C148.183 65.8451 148.385 65.8609 148.578 65.8186C148.772 65.7762 148.948 65.6777 149.086 65.5353C149.224 65.393 149.316 65.2132 149.351 65.0186C149.387 64.8239 149.364 64.6231 149.285 64.4415C149.207 64.2599 149.076 64.1054 148.91 63.9977C148.744 63.89 148.55 63.8337 148.352 63.836C148.084 63.8423 147.83 63.9536 147.644 64.1458C147.459 64.338 147.356 64.5957 147.359 64.8628Z" fill="#263238"/>
<path d="M148.414 61.1132L150.554 62.3072C150.702 62.0139 150.733 61.6751 150.64 61.36C150.546 61.0449 150.336 60.7772 150.052 60.6117C149.912 60.5351 149.758 60.4873 149.599 60.471C149.44 60.4548 149.28 60.4705 149.127 60.5173C148.974 60.564 148.833 60.6408 148.71 60.7432C148.588 60.8455 148.487 60.9714 148.414 61.1132Z" fill="#263238"/>
<path d="M147.432 71.6074L145.16 72.4671C145.21 72.619 145.29 72.7595 145.395 72.8801C145.5 73.0007 145.628 73.0989 145.772 73.1691C145.916 73.2392 146.072 73.2798 146.232 73.2885C146.392 73.2971 146.552 73.2736 146.702 73.2193C147.011 73.0989 147.259 72.8629 147.396 72.5617C147.532 72.2605 147.545 71.918 147.432 71.6074V71.6074Z" fill="#F28F8F"/>
<path d="M138.478 61.9348L140.403 60.4304C140.31 60.2997 140.193 60.189 140.056 60.1047C139.92 60.0204 139.768 59.9644 139.61 59.9399C139.452 59.9154 139.29 59.9229 139.134 59.962C138.979 60.0012 138.833 60.0711 138.705 60.1677C138.447 60.3765 138.279 60.6767 138.237 61.0058C138.195 61.3349 138.281 61.6677 138.478 61.9348V61.9348Z" fill="#263238"/>
<path d="M139.076 64.587C139.073 64.8542 139.175 65.1118 139.361 65.304C139.547 65.4963 139.801 65.6076 140.069 65.6139C140.339 65.6076 140.596 65.495 140.784 65.3005C140.972 65.1061 141.076 64.8454 141.073 64.5751C141.088 64.435 141.074 64.2933 141.031 64.1591C140.988 64.0249 140.917 63.9013 140.822 63.7964C140.728 63.6915 140.613 63.6075 140.484 63.55C140.355 63.4926 140.216 63.4629 140.075 63.4629C139.933 63.4629 139.794 63.4926 139.665 63.55C139.536 63.6075 139.421 63.6915 139.327 63.7964C139.233 63.9013 139.162 64.0249 139.118 64.1591C139.075 64.2933 139.061 64.435 139.076 64.5751V64.587Z" fill="#263238"/>
<path d="M144.158 63.6445L143.823 69.6263L140.703 68.5637L144.158 63.6445Z" fill="#F28F8F"/>
<path d="M159.651 220.15V219.231C159.041 219.493 157.618 224.902 155.096 227.206C153.075 229.033 150.313 231.158 149.632 233.176C148.951 235.194 153.458 236.472 155.335 236.137C157.523 235.755 161.312 234.215 162.257 232.794C163.201 231.373 163.656 229.272 164.421 228.221C165.186 227.17 166.979 226.012 167.398 224.806C167.521 223.678 167.394 222.537 167.027 221.463C166.728 220.341 166.417 219.075 166.035 219.207C166.035 219.338 166.035 219.899 166.035 219.899C165.127 220.615 163.999 220.994 162.843 220.974C161.922 221.045 159.639 220.866 159.651 220.15Z" fill="#263238"/>
<path d="M137.472 210.062C137.138 210.062 136.863 210.539 136.133 211.327C135.045 212.433 133.775 213.346 132.379 214.026C129.988 215.22 125.35 217.058 123.246 218.002C121.942 218.599 122.05 220.175 123.353 221.082C124.656 221.989 127.992 222.634 131.925 221.751C134.065 221.273 136.863 219.303 138.62 219.363C140.377 219.422 143.689 219.446 144.992 218.551C146.295 217.655 145.781 215.733 145.411 214.085C145.04 212.438 144.43 209.548 143.833 209.668V210.229C143.067 211.423 139.158 211.865 137.472 211.017V210.062Z" fill="#263238"/>
<path d="M128.938 109.851C127.587 107.332 127.252 107.224 126.439 106.675C125.626 106.126 120.712 105.386 118.668 105.218C116.277 105.016 115.404 105.457 116.074 107.523C117.925 112.729 120.179 117.782 122.816 122.639C123.462 123.486 123.594 124.274 126.295 124.537C128.997 124.8 131.998 124.919 132.931 124.979C133.863 125.038 135.154 125.265 134.318 122.519C133.249 119.419 132.016 116.378 130.623 113.409C129.643 111.153 128.938 109.851 128.938 109.851Z" fill="#37474F"/>
<path d="M177.943 117.42C177.884 116.632 175.552 107.725 174.357 103.605L165.605 106.614L167.662 113.098L175.361 121.061C176.177 120.901 176.901 120.434 177.381 119.756C177.862 119.078 178.063 118.242 177.943 117.42V117.42Z" fill="#FFA8A7"/>
<path d="M167.624 113.099C167.624 113.099 143.498 115.678 140.664 114.807C137.831 113.935 134.029 111.105 131.985 109.935C129.94 108.765 128.47 108.67 128.47 109.159C128.47 109.649 130.215 112.311 130.622 113.41C131.028 114.508 128.733 114.52 125.744 113.828C122.755 113.135 121.548 111.44 120.759 112.419C119.97 113.398 122.421 118.389 127.394 120.263C132.367 122.138 136.062 120.896 140.174 121.063C144.287 121.23 169.62 122.854 175.323 121.063C175.474 120.152 175.37 119.217 175.022 118.361C174.674 117.506 174.095 116.763 173.35 116.216C171.643 114.844 169.703 113.789 167.624 113.099V113.099Z" fill="#FFA8A7"/>
<path d="M158.023 81.9961C161.813 83.2498 169.333 83.8826 171.76 92.0732C174.187 100.264 175.406 105.577 175.406 105.577C173.972 107.487 168.233 109.696 165.603 108.872L158.023 81.9961Z" fill="#455A64"/>
<path d="M165.606 108.871L163.012 99.6777L165.606 112.62V108.871Z" fill="#37474F"/>
<g opacity="0.3">
<path opacity="0.3" d="M101.632 139.958L89.3963 138.222C89.3341 138.214 89.2784 138.192 89.2347 138.16C89.191 138.127 89.1606 138.085 89.1463 138.038C89.1321 137.99 89.1345 137.938 89.1534 137.887C89.1722 137.836 89.2069 137.788 89.2541 137.746L99.1785 129.493L101.632 139.958Z" fill="black"/>
</g>
<path d="M89.9059 138.071L101.492 139.649L100.89 138.547L97.0205 131.474L89.8383 136.686L89.9059 138.071Z" fill="#EBEBEB"/>
<path d="M110.116 132.574L101.632 139.959L95.2977 129.286C95.1964 129.116 95.1713 128.917 95.2257 128.716C95.2801 128.515 95.4115 128.321 95.6018 128.162L108.588 117.198C108.68 117.12 108.792 117.058 108.914 117.016C109.036 116.975 109.164 116.956 109.287 116.96C109.411 116.965 109.526 116.993 109.623 117.043C109.72 117.092 109.796 117.161 109.845 117.244L115.688 127.309L110.116 132.574Z" fill="#FF725E"/>
<path d="M89.7509 135.302L101.053 138.9L95.9176 130.309L89.7509 135.302Z" fill="#EBEBEB"/>
<path d="M95.9154 130.309C95.869 130.333 95.8262 130.361 95.7885 130.394L95.4505 130.649L94.1757 131.65C93.0717 132.537 91.5263 133.773 89.6755 135.251L89.5614 135.343L89.6945 135.385L97.0375 137.738L100.989 138.989L101.096 138.806C97.8632 138.184 95.063 137.642 93.0421 137.25L90.6891 136.818L90.0595 136.712C89.9874 136.697 89.9124 136.686 89.8355 136.682C89.8355 136.682 89.9012 136.709 90.0428 136.744L90.6607 136.881L92.9782 137.37L101 138.994L101.113 138.809L97.1705 137.551L89.8039 135.224L89.8422 135.352C91.6662 133.855 93.2159 132.598 94.2809 131.703L95.5152 130.673L95.8323 130.4C95.8843 130.346 95.9213 130.311 95.9154 130.309Z" fill="#263238"/>
<g opacity="0.3">
<path opacity="0.3" d="M100.038 129.216C100.211 129.056 107.619 122.724 107.619 122.724L111.021 128.422L103.386 135.159L100.038 129.216Z" fill="white"/>
</g>
<path d="M98.4172 169.631C100.713 168.975 104.18 160.45 106.786 150.778C109.392 141.107 110.767 138.97 110.851 135.925C110.934 132.881 110.719 128.881 110.719 128.881L106.176 135.507C105.979 134.229 105.575 132.991 104.981 131.842C104.395 130.648 103.295 129.705 102.398 130.421C101.92 130.803 103.187 132.439 102.912 136.092C102.89 137.549 103.034 139.003 103.343 140.427L94.9023 160.844L98.4172 169.631Z" fill="#FFA8A7"/>
<path d="M64.4512 127.294C61.7851 126.541 59.5256 127.962 58.2703 132.201C56.0698 140.181 54.4713 148.315 53.4882 156.534C53.1295 159.483 52.723 163.065 55.5445 163.34C57.6964 163.555 63.9132 162.361 65.0011 161.286C66.4597 159.877 66.1967 154.194 66.1967 154.194H62.9687C62.9687 154.194 63.6621 149.716 63.8654 148.355C64.5827 143.782 65.6467 138.016 65.6467 138.016L64.4512 127.294Z" fill="#F28F8F"/>
<path d="M80.099 123.102L79.0111 132.666L69.5664 133.764L70.9293 121.072L80.099 123.102Z" fill="#FFA8A7"/>
<path d="M59.8828 109.145C60.6599 100.31 65.454 96.6802 69.1601 95.7966C76.6442 94.0415 84.0326 96.5488 87.0931 101.767C87.7937 103.4 88.1548 105.159 88.1548 106.936C88.1548 108.714 87.7937 110.473 87.0931 112.106C85.4672 115.808 59.9187 109.121 59.9187 109.121" fill="#263238"/>
<path d="M87.562 113.896C87.562 113.896 88.913 117.538 88.5543 117.813C87.9905 118.016 87.3961 118.121 86.7969 118.123L87.562 113.896Z" fill="#FFA8A7"/>
<path d="M83.5314 102.387C85.3128 103.916 88.3136 106.686 87.5125 114.327C86.6278 122.231 84.715 124.368 83.4238 125.133C82.563 125.646 78.7493 124.751 76.9799 123.712C74.7801 122.41 69.9024 119.055 68.4199 114.53C66.6625 109.205 67.5471 102.853 71.3968 101.193C73.3556 100.352 75.496 100.02 77.6182 100.229C79.7403 100.437 81.7747 101.18 83.5314 102.387Z" fill="#FFA8A7"/>
<path d="M85.7313 102.59C85.7696 104.703 85.3305 106.798 84.4467 108.718C83.5629 110.638 82.2571 112.335 80.6264 113.682C80.6264 113.682 79.5146 110.805 77.0398 111.461C74.5651 112.118 74.6488 115.377 76.4182 117.145C76.8769 117.65 77.4704 118.013 78.1291 118.193C78.7877 118.373 79.4841 118.361 80.1362 118.159C79.7835 120.418 78.7248 122.508 77.1116 124.129C74.5371 124.721 71.8479 124.575 69.3526 123.709C66.8572 122.843 64.657 121.292 63.0043 119.234C57.5407 112.679 59.1547 102.268 67.6908 99.1991C70.7089 97.9896 74.0102 97.6661 77.2062 98.2668C80.4022 98.8675 83.3599 100.367 85.7313 102.59V102.59Z" fill="#263238"/>
<path d="M68.4334 266.989L72.5101 272.648C70.6531 273.487 68.6298 273.895 66.5922 273.842C62.9459 273.985 61.9416 272.791 61.8101 272.505C61.1884 271.179 62.1568 268.803 62.4198 266.762L68.4334 266.989Z" fill="#263238"/>
<path d="M72.2563 269.914C72.2563 269.914 77.1938 269.592 80.625 269.162C84.0562 268.732 86.7461 270.356 85.9451 271.801C85.1441 273.245 83.2552 274.38 80.3261 275.383C77.8275 276.23 74.8147 276.839 72.1965 277.615C69.5783 278.391 67.797 279.347 66.2786 278.809C64.581 278.224 63.8876 277.544 63.9952 276.314C64.3655 274.561 64.8244 272.827 65.37 271.12L72.2563 269.914Z" fill="#263238"/>
<path d="M61.8086 261.281C61.8086 261.281 62.4183 266.415 62.4661 267.525C62.514 268.635 67.4874 268.982 68.4438 266.964L68.5992 260.684L61.8086 261.281Z" fill="#F28F8F"/>
<path d="M66.8167 264.445L65.0832 272.242C65.0832 272.242 64.9039 273.185 68.9806 273.794C73.0574 274.403 79.4176 271.669 80.5056 271.12C81.5935 270.57 81.7011 269.46 77.72 269.675C73.7389 269.89 72.3162 269.914 72.3162 269.914L73.6193 266.451L66.8167 264.445Z" fill="#FFA8A7"/>
<path d="M61.8101 160.068C58.4028 165.358 55.1749 170.014 54.4815 175.96C53.0229 188.521 57.805 202.872 58.8212 212.161C56.8881 214.805 55.7703 217.955 55.6053 221.224C55.6053 225.068 61.8101 261.282 61.8101 261.282C61.8101 261.282 66.3172 262.655 68.5887 260.685L72.8568 194.061L70.6092 185.954L61.8101 160.068Z" fill="#455A64"/>
<path d="M72.8554 194.061L70.6078 185.954C66.3776 184.855 62.2953 183.252 58.4492 181.178C58.4492 181.178 60.7566 185.357 67.344 187.649L70.7752 198.072L71.074 221.952L72.8554 194.061Z" fill="#37474F"/>
<path d="M61.8072 160.068C59.99 163.029 55.6263 168.116 56.5588 172.987C57.6826 178.957 60.8627 183.052 70.6063 185.954L79.7402 218.991C79.7402 218.991 74.958 223.445 73.5353 227.671C72.1127 231.898 66.8164 264.446 66.8164 264.446C66.8164 264.446 68.4424 267.096 73.5832 266.451C73.5832 266.451 91.5162 225.63 92.7117 223.003C94.2413 220.314 94.7786 217.175 94.23 214.132C93.6561 209.857 87.5589 163.029 87.5589 163.029L61.8072 160.068Z" fill="#455A64"/>
<path d="M60.1466 130.254C60.5131 129.28 61.2036 128.461 62.1026 127.935C63.0015 127.409 64.0542 127.208 65.0842 127.364C71.4563 129.096 81.3673 131.376 83.2443 131.925C83.2443 131.925 82.3955 144.187 89.736 148.51C89.3893 151.244 87.5243 163.028 87.5243 163.028C87.5243 163.028 78.7013 167.303 71.4444 165.201C64.1875 163.1 61.7486 160.067 61.7486 160.067L65.3352 154.157C64.5581 152.235 61.5573 145.704 59.6206 139.638C58.9485 136.52 59.1303 133.278 60.1466 130.254Z" fill="#FFB900"/>
<path d="M64.4492 151.83C67.4675 153.643 70.6305 155.205 73.9059 156.499C70.9289 156.422 68.0188 155.601 65.4415 154.111L64.4492 151.83Z" fill="#E0E0E0"/>
<path d="M89.5818 147.59C86.974 146.397 84.8286 144.384 83.4727 141.859C83.6926 143.799 84.3584 145.662 85.4181 147.302C86.4778 148.943 87.9028 150.316 89.5818 151.316V147.59Z" fill="#E0E0E0"/>
<path d="M83.3036 131.926C87.3087 133.12 89.7954 133.502 91.9593 135.436C94.8047 137.991 97.7457 152.438 98.3434 155.423C99.3836 160.593 100.531 165.966 99.4075 168.378C98.5945 170.121 94.171 171.422 92.2343 165.787C91.8278 164.593 91.7441 164.044 91.3854 162.969C89.5563 157.572 86.8066 147.256 86.8066 147.256C86.8066 147.256 81.3908 144.271 83.3036 131.926Z" fill="#FFA8A7"/>
<path d="M63.891 99.1992C62.4683 100.023 59.8979 100.823 58.2959 108.285C56.9917 114.545 56.2158 120.904 55.9766 127.293C56.0363 129.61 60.8424 136.045 70.9805 135.436C81.1186 134.827 84.8009 128.893 84.8009 128.893C84.8009 128.893 79.8155 126.864 80.21 118.148C80.21 118.148 78.4526 121.598 73.6346 119.867C68.8166 118.136 63.891 99.1992 63.891 99.1992Z" fill="#263238"/>
</svg>
