<svg width="25" height="25" viewBox="0 0 25 25" fill="none" xmlns="http://www.w3.org/2000/svg">
<g clip-path="url(#clip0_3196_14643)">
<path d="M22.9678 0.074231L7.34424 4.688C7.02709 4.78762 6.74999 4.9858 6.5532 5.25371C6.35641 5.52163 6.2502 5.84532 6.25 6.17775V18.9419C5.73835 18.8177 5.21399 18.7535 4.6875 18.7505C2.09961 18.7505 0 20.1499 0 21.8755C0 23.6011 2.09961 25.0005 4.6875 25.0005C7.27539 25.0005 9.375 23.6011 9.375 21.8755V10.4653L21.875 6.80323V15.8174C21.3634 15.6928 20.839 15.6284 20.3125 15.6255C17.7246 15.6255 15.625 17.0249 15.625 18.7505C15.625 20.4761 17.7246 21.8755 20.3125 21.8755C22.9004 21.8755 25 20.4766 25 18.7505V1.563C24.9998 1.31771 24.9418 1.07591 24.8308 0.85719C24.7197 0.638465 24.5588 0.448953 24.3609 0.303993C24.163 0.159033 23.9338 0.0626961 23.6918 0.02278C23.4497 -0.0171361 23.2017 0.000489715 22.9678 0.074231V0.074231Z" fill="black"/>
</g>
<defs>
<clipPath id="clip0_3196_14643">
<rect width="25" height="25" fill="white"/>
</clipPath>
</defs>
</svg>
