<svg width="24" height="24" viewBox="0 0 24 24" fill="none" xmlns="http://www.w3.org/2000/svg">
<g clip-path="url(#clip0_3196_14659)">
<path d="M7.82953 14.5003C5.94891 14.6212 4.24219 15.3375 3.27375 17.8894C3.16359 18.1805 2.89875 18.3572 2.58984 18.3572C2.06906 18.3572 0.458906 17.0602 0 16.747C0.00046875 20.6072 1.77844 24 6.00047 24C9.55641 24 12.0005 21.9483 12.0005 18.3661C12.0005 18.2203 11.97 18.0811 11.955 17.9381L7.82953 14.5003V14.5003ZM21.4641 0C20.7534 0 20.0873 0.314531 19.5792 0.771094C9.9975 9.33047 9.00047 9.53156 9.00047 12.0511C9.00047 12.6933 9.15281 13.3055 9.40969 13.8652L12.4012 16.358C12.7392 16.4423 13.0875 16.5 13.4508 16.5C16.3622 16.5 18.0497 14.3686 23.3489 4.47844C23.6948 3.80578 24.0005 3.07922 24.0005 2.32266C24.0005 0.9675 22.7817 0 21.4641 0Z" fill="white"/>
</g>
<defs>
<clipPath id="clip0_3196_14659">
<rect width="24" height="24" fill="white"/>
</clipPath>
</defs>
</svg>
