<svg width="30" height="30" viewBox="0 0 30 30" fill="none" xmlns="http://www.w3.org/2000/svg">
<g clip-path="url(#clip0_3196_17879)">
<path d="M21.5566 19.3219C21.2859 19.6324 20.9836 19.9137 20.625 20.1217V21.4658C24.5227 22.0131 27.1875 23.1094 27.1875 24.375C27.1875 26.1873 21.7312 27.6562 15 27.6562C8.26875 27.6562 2.8125 26.1873 2.8125 24.375C2.8125 23.1094 5.47734 22.0137 9.375 21.4658V20.1217C9.01641 19.9137 8.71406 19.6324 8.44336 19.3219C3.44941 20.2348 0 22.1514 0 24.375C0 27.4816 6.71602 30 15 30C23.284 30 30 27.4816 30 24.375C30 22.1514 26.5506 20.2348 21.5566 19.3219ZM15 7.5C17.0713 7.5 18.75 5.82129 18.75 3.75C18.75 1.67871 17.0713 0 15 0C12.9287 0 11.25 1.67871 11.25 3.75C11.25 5.82129 12.9287 7.5 15 7.5ZM11.25 18.75V24.375C11.25 25.4104 12.0896 26.25 13.125 26.25H16.875C17.9104 26.25 18.75 25.4104 18.75 24.375V18.75C19.7854 18.75 20.625 17.9104 20.625 16.875V11.25C20.625 9.69668 19.3658 8.4375 17.8125 8.4375H17.1211C16.4725 8.73223 15.7582 8.90625 15 8.90625C14.2418 8.90625 13.5275 8.73223 12.8789 8.4375H12.1875C10.6342 8.4375 9.375 9.69668 9.375 11.25V16.875C9.375 17.9104 10.2146 18.75 11.25 18.75Z" fill="black"/>
</g>
<defs>
<clipPath id="clip0_3196_17879">
<rect width="30" height="30" fill="white"/>
</clipPath>
</defs>
</svg>
