<svg width="30" height="25" viewBox="0 0 30 25" fill="none" xmlns="http://www.w3.org/2000/svg">
<path d="M21.6667 8.92857C21.6667 3.99554 16.8177 0 10.8333 0C4.84896 0 0 3.99554 0 8.92857C0 10.8426 0.734375 12.606 1.97917 14.0625C1.28125 15.7478 0.130208 17.0871 0.114583 17.1038C0 17.2321 -0.03125 17.4219 0.0364583 17.5893C0.104167 17.7567 0.25 17.8571 0.416667 17.8571C2.32292 17.8571 3.90104 17.1708 5.03646 16.4621C6.71354 17.3382 8.69792 17.8571 10.8333 17.8571C16.8177 17.8571 21.6667 13.8616 21.6667 8.92857ZM28.0208 21.2054C29.2656 19.7545 30 17.9855 30 16.0714C30 12.3382 27.2135 9.14062 23.2656 7.80692C23.3125 8.17522 23.3333 8.54911 23.3333 8.92857C23.3333 14.8382 17.724 19.6429 10.8333 19.6429C10.2708 19.6429 9.72396 19.5982 9.18229 19.5368C10.8229 22.7455 14.6771 25 19.1667 25C21.3021 25 23.2865 24.4866 24.9635 23.6049C26.099 24.3136 27.6771 25 29.5833 25C29.75 25 29.901 24.894 29.9635 24.7321C30.0312 24.5703 30 24.3806 29.8854 24.2467C29.8698 24.2299 28.7187 22.8962 28.0208 21.2054Z" fill="black"/>
</svg>
