<svg width="20" height="22" viewBox="0 0 20 22" fill="none" xmlns="http://www.w3.org/2000/svg">
<g clip-path="url(#clip0_3196_14319)">
<path d="M9.22369 10.4223C9.19559 8.98292 8.91344 7.56257 8.39239 6.23762C5.0672 7.91625 2.62457 11.0835 1.78961 14.8208C2.27825 16.0312 2.98685 17.123 3.87335 18.0316C4.71639 14.8625 6.62471 12.1484 9.22369 10.4223V10.4223ZM7.87237 5.10137C7.3154 4.05228 6.60561 3.10714 5.77032 2.30233C2.4378 4.27393 0.467589 8.3557 1.19269 12.6829C2.41583 9.39297 4.7962 6.66519 7.87237 5.10137ZM14.7425 11.6377C15.0574 7.68662 13.7427 3.81865 11.1719 1.17005C10.6336 1.10275 9.28229 0.952303 7.55011 1.50657C9.66942 3.88075 10.8908 7.02596 10.9742 10.3241C12.1412 11.0179 13.4204 11.4638 14.7425 11.6377V11.6377ZM10.1758 12.0139C9.0368 12.7615 8.04 13.737 7.23883 14.8881C10.2418 17.1566 13.9954 17.8613 17.4012 16.7805C18.1338 15.7194 18.6595 14.5086 18.9466 13.2214C17.9782 13.4881 16.9833 13.6264 15.9839 13.6331C13.9844 13.6291 11.9959 13.0749 10.1758 12.0139ZM6.57599 15.961C6.01935 16.9904 5.63483 18.1147 5.40045 19.2945C7.02494 20.3724 8.92282 20.8682 10.8233 20.7111C12.7239 20.554 14.53 19.752 15.9839 18.4196C11.8494 19.057 8.53888 17.4377 6.57599 15.961V15.961ZM13.1788 1.68472C15.2039 4.47189 16.2 8.06669 15.9107 11.7248C17.0264 11.7274 18.1352 11.5376 19.1956 11.1627C19.1956 11.0835 19.2066 11.0043 19.2066 10.9251C19.2066 6.65727 16.6907 3.04267 13.1788 1.68472V1.68472Z" fill="black"/>
</g>
<defs>
<clipPath id="clip0_3196_14319">
<rect width="18.75" height="20.2703" fill="white" transform="translate(0.75 0.783203)"/>
</clipPath>
</defs>
</svg>
