<svg width="13" height="14" viewBox="0 0 13 14" fill="none" xmlns="http://www.w3.org/2000/svg">
<g clip-path="url(#clip0_3196_17010)">
<path d="M6.14913 6.61553C6.1304 5.65593 5.94229 4.70903 5.59493 3.82573C3.37813 4.94482 1.74971 7.0563 1.19307 9.54786C1.51883 10.3548 1.99123 11.0827 2.58223 11.6884C3.14426 9.57562 4.41647 7.76628 6.14913 6.61553V6.61553ZM5.24825 3.06823C4.87694 2.36884 4.40374 1.73875 3.84688 1.20221C1.6252 2.51661 0.311726 5.23778 0.795124 8.1226C1.61055 5.9293 3.19747 4.11078 5.24825 3.06823ZM9.82833 7.42581C10.0383 4.79173 9.16182 2.21308 7.44796 0.447351C7.08907 0.402482 6.18819 0.302186 5.03341 0.671696C6.44628 2.25448 7.26052 4.35129 7.31612 6.55007C8.09417 7.0126 8.94691 7.30986 9.82833 7.42581V7.42581ZM6.78389 7.67655C6.02453 8.17497 5.36 8.8253 4.82589 9.59272C6.82784 11.1051 9.33028 11.5749 11.6008 10.8543C12.0892 10.1469 12.4397 9.3397 12.6311 8.48156C11.9854 8.6594 11.3222 8.75157 10.656 8.75605C9.32296 8.75341 7.99727 8.3839 6.78389 7.67655ZM4.38399 10.308C4.0129 10.9942 3.75655 11.7438 3.6003 12.5303C4.68329 13.2489 5.94855 13.5794 7.21556 13.4747C8.48258 13.37 9.68663 12.8353 10.656 11.947C7.89962 12.372 5.69259 11.2925 4.38399 10.308V10.308ZM8.78585 0.790467C10.1359 2.64858 10.8 5.04511 10.6071 7.48388C11.3509 7.48558 12.0902 7.35906 12.7971 7.10909C12.7971 7.0563 12.8044 7.00351 12.8044 6.95073C12.8044 4.1055 11.1272 1.69577 8.78585 0.790467V0.790467Z" fill="black"/>
</g>
<defs>
<clipPath id="clip0_3196_17010">
<rect width="12.5" height="13.5135" fill="white" transform="translate(0.5 0.189453)"/>
</clipPath>
</defs>
</svg>
