<svg width="24" height="24" viewBox="0 0 24 24" fill="none" xmlns="http://www.w3.org/2000/svg">
<g clip-path="url(#clip0_3196_14631)">
<path d="M10.8463 11.4131C10.8104 9.70884 10.4492 8.02714 9.78226 6.4584C5.52601 8.4459 2.39945 12.1959 1.3307 16.6209C1.95616 18.0539 2.86317 19.3467 3.99789 20.4225C5.07697 16.6702 7.51962 13.4568 10.8463 11.4131V11.4131ZM9.11664 5.11309C8.40372 3.87097 7.49518 2.75192 6.42601 1.79903C2.16039 4.1334 -0.361486 8.96621 0.566639 14.0897C2.13226 10.1943 5.17914 6.96465 9.11664 5.11309ZM17.9104 12.8522C18.3135 8.17403 16.6307 3.59434 13.3401 0.458401C12.651 0.378714 10.9213 0.200589 8.70414 0.856839C11.4169 3.66787 12.9802 7.3918 13.087 11.2968C14.5808 12.1183 16.2181 12.6462 17.9104 12.8522V12.8522ZM12.0651 13.2975C10.6071 14.1827 9.33121 15.3376 8.3057 16.7006C12.1495 19.3865 16.9541 20.2209 21.3135 18.9412C22.2512 17.6848 22.9242 16.2512 23.2916 14.7272C22.0521 15.043 20.7786 15.2067 19.4995 15.2147C16.9401 15.21 14.3948 14.5537 12.0651 13.2975ZM7.45726 17.9709C6.74476 19.1897 6.25258 20.5209 5.95258 21.9178C8.03192 23.194 10.4612 23.781 12.8939 23.595C15.3266 23.4089 17.6383 22.4594 19.4995 20.8818C14.2073 21.6365 9.96976 19.7193 7.45726 17.9709V17.9709ZM15.9088 1.06778C18.501 4.36778 19.776 8.62403 19.4057 12.9553C20.8337 12.9583 22.2531 12.7336 23.6104 12.2897C23.6104 12.1959 23.6245 12.1022 23.6245 12.0084C23.6245 6.95528 20.4041 2.67559 15.9088 1.06778V1.06778Z" fill="white"/>
</g>
<defs>
<clipPath id="clip0_3196_14631">
<rect width="24" height="24" fill="white"/>
</clipPath>
</defs>
</svg>
